<?xml version="1.0" standalone="no"?>
<!DOCTYPE svg PUBLIC "-//W3C//DTD SVG 20010904//EN"
 "http://www.w3.org/TR/2001/REC-SVG-20010904/DTD/svg10.dtd">
<svg version="1.0" xmlns="http://www.w3.org/2000/svg"
 width="512.000000pt" height="512.000000pt" viewBox="0 0 512.000000 512.000000"
 preserveAspectRatio="xMidYMid meet">
<metadata>
Created by potrace 1.16, written by Peter Selinger 2001-2019
</metadata>
<g transform="translate(0.000000,512.000000) scale(0.100000,-0.100000)"
fill="#000000" stroke="none">
<path d="M160 5019 l0 -101 35 -32 c19 -18 35 -38 35 -46 0 -7 -52 -66 -115
-130 -79 -79 -115 -123 -115 -139 0 -14 5 -21 14 -19 7 2 100 87 206 190 213
207 198 180 182 313 l-9 70 -1 -81 -2 -82 -46 -51 c-25 -28 -54 -51 -64 -51
-10 0 -32 16 -49 35 -30 35 -31 39 -31 130 0 88 -1 95 -20 95 -19 0 -20 -7
-20 -101z"/>
<path d="M500 5094 c0 -14 9 -37 20 -51 18 -23 20 -41 20 -158 0 -118 2 -134
20 -155 11 -13 20 -31 20 -41 0 -32 57 -69 106 -69 54 0 96 27 130 86 21 36
24 53 24 145 0 120 -7 138 -83 218 -48 51 -77 64 -77 36 0 -17 25 -43 98 -102
l42 -35 0 -90 c0 -79 -2 -89 -15 -78 -10 8 -15 31 -15 67 0 55 -1 56 -70 127
-51 53 -70 80 -70 99 0 22 -5 27 -23 27 -20 0 -24 -5 -25 -36 -1 -31 6 -45 58
-98 l60 -63 0 -66 c0 -59 -3 -69 -27 -92 -33 -30 -63 -32 -86 -7 -14 16 -17
45 -17 190 0 146 -2 172 -15 172 -11 0 -15 -11 -15 -37 0 -35 0 -36 -20 -18
-11 10 -20 26 -20 37 0 10 -4 18 -10 18 -5 0 -10 -12 -10 -26z"/>
<path d="M932 4978 l-2 -146 54 -47 c51 -43 74 -84 60 -106 -3 -6 -7 -120 -9
-255 l-2 -245 -34 -35 c-33 -34 -34 -34 -120 -34 l-87 0 -115 -107 c-63 -60
-118 -114 -121 -122 -15 -33 9 -21 67 35 34 33 88 84 120 112 58 51 60 52 123
52 50 0 64 -3 64 -15 0 -8 -4 -15 -9 -15 -5 0 -11 -9 -14 -20 -4 -16 -14 -20
-51 -20 -44 0 -49 -3 -136 -88 -81 -80 -90 -92 -90 -125 0 -20 5 -37 10 -37 6
0 10 16 10 36 0 31 9 44 63 95 l62 60 71 -5 c69 -4 73 -3 100 25 48 51 54 42
54 -86 l0 -115 -31 -19 c-17 -10 -60 -47 -95 -81 l-64 -62 0 -135 c0 -96 -4
-142 -14 -161 -17 -32 -76 -88 -132 -125 -74 -50 -88 -71 -85 -130 2 -50 1
-53 -48 -102 l-51 -49 0 -68 c0 -52 4 -70 15 -74 11 -5 15 -23 15 -71 0 -40 4
-62 10 -58 17 10 12 111 -6 130 -9 9 -18 40 -21 73 l-5 57 56 52 c55 52 56 53
56 108 0 52 3 58 40 93 l39 38 7 -54 c9 -75 0 -117 -35 -159 -30 -36 -31 -41
-31 -133 l0 -96 -35 -34 c-32 -31 -35 -39 -30 -71 5 -30 2 -42 -21 -68 -18
-22 -32 -30 -45 -26 -13 4 -19 1 -19 -8 0 -8 -28 -40 -62 -71 -35 -30 -58 -56
-52 -56 6 0 38 26 72 58 34 31 66 56 72 54 6 -2 26 12 45 31 28 28 35 43 35
74 0 31 7 46 30 68 29 28 30 31 30 130 l0 101 40 39 c38 38 40 42 40 103 l0
64 66 69 66 68 37 -24 c33 -23 44 -25 164 -25 l129 0 64 -62 64 -61 0 -121 c0
-67 5 -138 11 -159 13 -49 5 -58 -22 -23 -44 56 -116 72 -173 37 -51 -32 -76
-74 -76 -128 0 -46 3 -52 63 -111 34 -34 67 -62 73 -62 5 0 40 30 77 68 54 54
67 74 67 99 0 31 0 31 38 22 50 -12 76 -10 32 3 -48 13 -58 24 -53 52 3 14 -2
40 -12 58 -13 27 -15 51 -10 138 4 64 3 115 -3 130 -6 14 -40 55 -77 93 l-66
67 -134 0 c-127 0 -135 1 -162 24 -28 24 -28 24 -31 169 l-3 145 37 41 c33 37
39 40 53 27 21 -18 40 -22 69 -12 35 12 42 36 31 107 -14 86 -4 165 26 198 13
14 49 53 79 86 l56 60 0 302 0 302 -78 70 -78 71 -11 87 c-6 49 -8 109 -6 136
4 33 1 47 -7 47 -13 0 -9 -113 6 -229 5 -31 3 -42 -5 -37 -18 11 -13 -12 7
-31 9 -10 45 -42 80 -72 l62 -54 0 -294 0 -294 -51 -55 c-29 -30 -58 -54 -65
-54 -27 0 -25 23 6 62 31 38 31 39 6 23 -21 -14 -29 -15 -41 -5 -13 11 -11 17
20 47 l34 33 3 252 c2 170 -1 256 -8 267 -6 9 -14 28 -18 43 -3 15 -30 47 -61
73 l-54 47 -4 141 -3 142 -2 -147z m41 -954 c3 -4 -11 -20 -33 -35 -33 -24
-50 -29 -96 -29 -34 0 -53 4 -49 10 3 6 28 10 54 10 38 0 52 5 71 25 23 25 41
31 53 19z m-142 -752 c-12 -22 -121 -129 -121 -119 0 18 25 55 68 99 43 45 73
56 53 20z m430 -491 c23 -24 29 -38 29 -73 0 -40 -5 -49 -55 -98 l-55 -54 -50
49 c-45 44 -50 54 -50 93 0 37 6 50 34 78 46 46 104 48 147 5z"/>
<path d="M1550 5021 l0 -98 50 -47 c27 -25 55 -46 61 -46 7 0 23 10 36 22 26
25 29 15 12 -44 -9 -35 -13 -38 -45 -38 -38 0 -67 -12 -99 -40 -19 -18 -21
-17 -63 20 -42 38 -43 40 -28 62 23 33 20 64 -12 99 -55 62 -142 27 -142 -56
0 -58 34 -90 87 -83 34 5 44 1 81 -33 l43 -38 -40 -37 -41 -36 0 -132 c0 -91
4 -137 13 -148 6 -9 47 -46 90 -82 102 -86 115 -86 202 -5 36 34 65 70 65 80
0 12 7 19 20 19 50 0 79 79 46 125 -12 17 -24 20 -84 19 -38 -1 -75 -4 -81 -8
-17 -11 -51 3 -51 20 0 21 29 29 51 16 10 -7 50 -12 87 -12 l69 0 10 48 11 47
-1 -47 c-1 -63 9 -73 59 -52 31 13 62 15 147 12 77 -3 107 -1 107 7 0 8 -29
10 -104 7 -58 -2 -115 -2 -129 2 -25 6 -40 33 -52 92 -3 18 -19 43 -36 58 -26
23 -29 33 -29 83 l0 56 26 -23 c15 -15 24 -34 23 -50 -2 -39 1 -46 11 -30 5 8
10 26 10 40 0 39 28 73 56 67 24 -4 34 8 13 15 -6 2 22 35 64 74 74 69 75 70
82 132 5 43 4 62 -4 62 -7 0 -11 -21 -11 -53 0 -51 -1 -54 -62 -113 -35 -33
-82 -77 -106 -97 -42 -37 -43 -37 -74 -21 l-32 16 30 13 c16 8 57 40 92 73 53
51 62 64 62 95 0 20 -4 47 -10 61 l-10 26 -199 0 c-226 0 -211 6 -211 -88 0
-54 1 -57 50 -103 l51 -47 -23 -16 c-33 -23 -42 -20 -82 24 l-36 40 0 95 c0
57 -4 95 -10 95 -6 0 -10 -40 -10 -99z m296 -22 c15 -30 15 -32 -12 -61 -36
-36 -73 -35 -92 4 -10 22 -10 32 -1 50 16 30 28 38 61 38 21 0 31 -8 44 -31z
m57 -49 c-21 -22 -42 -40 -48 -40 -5 0 9 18 30 40 51 52 67 52 18 0z m-65
-163 c-5 -59 -3 -64 28 -100 51 -57 40 -63 -15 -8 -45 46 -48 53 -54 111 -5
56 -3 62 16 69 28 11 30 3 25 -72z"/>
<path d="M2227 5082 l43 -37 -7 -107 -6 -108 -48 0 c-38 0 -51 -5 -66 -24 -14
-18 -23 -22 -36 -15 -48 27 -102 -31 -72 -77 28 -42 95 -27 95 21 0 33 20 45
72 45 81 0 88 14 88 174 0 74 -3 141 -6 150 -11 28 -21 17 -16 -16 l4 -33 -34
33 c-19 17 -38 32 -43 32 -6 0 9 -17 32 -38z"/>
<path d="M2312 5103 c5 -26 41 -27 63 -3 18 20 18 20 -24 20 -35 0 -42 -3 -39
-17z"/>
<path d="M2378 5067 c-52 -54 -54 -57 -35 -57 7 0 37 25 67 55 41 41 49 55 35
54 -11 -1 -41 -24 -67 -52z"/>
<path d="M2790 5106 c0 -7 -36 -47 -80 -88 l-80 -74 4 -67 c4 -91 16 -98 16
-10 l0 70 85 77 c55 50 82 82 78 91 -7 19 -23 20 -23 1z"/>
<path d="M2830 5094 c0 -27 35 -94 49 -94 4 0 15 -6 25 -13 17 -12 6 -25 -123
-142 l-142 -129 7 -135 c6 -135 6 -136 -20 -170 -14 -19 -26 -40 -26 -47 0 -6
-21 -29 -47 -50 -61 -49 -155 -136 -315 -290 -71 -68 -128 -121 -128 -118 0
32 96 130 368 373 62 56 82 80 82 99 0 15 12 39 28 55 25 27 27 34 27 119 0
83 -2 92 -22 106 -34 22 -30 60 10 93 25 22 29 30 20 40 -10 10 -17 9 -33 -6
-23 -21 -25 -17 -8 21 11 23 10 28 -11 45 -30 24 -56 24 -78 -1 -15 -15 -35
-20 -103 -23 l-85 -3 93 -2 c89 -2 132 -12 132 -31 0 -5 -10 -7 -21 -4 -19 5
-20 4 -10 -15 6 -11 11 -41 11 -66 0 -42 18 -76 41 -76 5 0 9 -7 9 -16 0 -11
-6 -13 -19 -9 -24 7 -61 -26 -61 -53 0 -30 35 -55 65 -48 32 8 32 3 -5 -34
-25 -26 -30 -37 -25 -63 6 -38 5 -40 -58 -90 -43 -35 -46 -36 -36 -13 25 54
-30 103 -87 77 -15 -7 -24 -19 -24 -34 0 -17 -23 -43 -82 -94 -46 -39 -122
-107 -170 -152 l-88 -81 -76 0 c-74 0 -77 -1 -121 -40 -41 -36 -51 -40 -99
-40 -51 0 -57 -3 -111 -52 -82 -73 -82 -75 -83 -155 0 -39 -4 -75 -10 -78 -15
-9 -12 -42 5 -49 10 -4 15 -19 15 -49 0 -42 -1 -44 -32 -44 -22 0 -38 -8 -55
-27 -28 -33 -29 -65 -3 -99 11 -14 20 -29 20 -34 0 -5 -22 -31 -50 -58 -78
-77 -75 -88 70 -223 l120 -112 54 0 c50 0 56 3 90 40 l36 40 0 113 c-1 78 -5
120 -15 137 -8 14 -14 49 -15 78 0 43 -4 56 -25 74 -22 19 -25 30 -25 88 l0
67 120 106 119 107 76 0 76 0 6 -30 c6 -31 35 -56 53 -45 6 3 10 36 10 73 l0
66 57 51 c31 27 120 109 197 180 78 72 163 148 190 170 27 22 56 56 64 75 8
19 23 47 33 62 16 23 19 45 19 166 l0 141 67 66 c36 36 72 65 79 63 7 -2 72
-57 145 -123 72 -66 139 -124 148 -129 21 -11 4 6 -155 152 l-132 120 52 51
c51 50 52 51 109 48 58 -2 58 -2 108 50 33 34 49 60 49 77 0 25 -2 26 -56 25
-53 -2 -60 -4 -99 -45 -61 -64 -107 -59 -121 14 -8 42 -44 46 -44 6z m300 0
c0 -24 -36 -70 -75 -94 -58 -36 -59 -13 -3 50 54 59 78 73 78 44z m-81 -20
c-13 -14 -37 -35 -54 -46 -16 -12 -7 0 20 25 55 51 71 61 34 21z m-665 -727
c23 -17 11 -47 -19 -47 -13 0 -26 7 -29 15 -3 10 -1 15 7 13 7 -2 12 2 12 7 0
6 -3 9 -7 8 -5 -2 -8 2 -8 7 0 14 23 12 44 -3z m-8 -87 c33 13 14 -6 -189
-182 -122 -107 -139 -131 -130 -195 4 -27 1 -32 -28 -42 -17 -6 -56 -11 -86
-11 l-54 0 -119 -112 -118 -113 -1 -69 c-1 -62 2 -73 25 -97 21 -22 25 -34 22
-73 l-3 -47 -45 57 c-25 31 -53 68 -62 82 -10 15 -18 23 -18 19 0 -16 28 -63
50 -82 13 -11 40 -43 61 -72 l39 -52 0 -119 c0 -113 -1 -120 -25 -142 -16 -15
-41 -24 -73 -28 l-49 -4 -112 103 c-61 57 -114 112 -117 123 -5 14 8 33 50 74
32 31 55 61 52 69 -3 8 2 13 15 13 32 0 55 17 69 49 10 26 10 37 -4 71 -12 31
-16 75 -16 182 l0 142 62 58 c59 55 65 58 113 58 46 0 55 4 90 40 39 40 40 40
115 40 l75 0 110 101 c61 56 136 123 168 150 l58 49 23 -25 c21 -22 27 -24 52
-15z"/>
<path d="M2137 4123 c-11 -10 -8 -41 4 -49 6 -3 18 1 27 9 13 13 13 19 2 31
-14 17 -23 20 -33 9z"/>
<path d="M3373 5098 c-27 -31 -36 -48 -25 -48 5 0 22 16 36 35 30 39 21 48
-11 13z"/>
<path d="M3462 5069 c-34 -31 -52 -55 -48 -64 3 -8 10 -15 15 -15 10 0 114
105 119 121 10 26 -39 2 -86 -42z"/>
<path d="M3720 5087 c0 -49 14 -57 100 -57 86 0 110 14 110 63 l0 27 -105 0
-105 0 0 -33z"/>
<path d="M3977 5076 c-34 -31 -47 -51 -48 -72 -1 -24 -24 -51 -130 -149 -160
-148 -170 -158 -165 -163 13 -12 86 45 194 151 102 102 122 127 122 152 0 22
12 42 47 77 59 60 43 63 -20 4z"/>
<path d="M4050 5111 c0 -12 80 -81 93 -81 5 0 7 -20 5 -44 -5 -38 -2 -48 19
-67 l24 -23 -88 -89 c-105 -106 -82 -99 35 11 l84 79 -30 30 c-27 27 -30 34
-22 67 4 20 22 49 39 65 51 47 42 61 -36 61 l-67 0 33 -34 c50 -51 19 -58 -33
-7 -42 41 -56 49 -56 32z"/>
<path d="M4254 5076 c-32 -31 -44 -51 -44 -73 0 -67 59 -87 111 -37 22 21 32
25 41 16 9 -9 6 -18 -12 -37 -13 -14 -18 -25 -11 -25 6 0 49 37 94 83 97 99
113 117 100 117 -6 0 -41 -31 -79 -70 l-69 -70 -24 35 c-21 31 -22 36 -7 50 9
9 16 26 15 38 0 20 -2 19 -10 -5 -11 -30 -37 -44 -53 -28 -7 7 -6 14 2 22 7 7
12 16 12 20 0 19 -26 5 -66 -36z m44 -48 c31 -31 -11 -88 -50 -67 -34 18 -17
79 22 79 9 0 21 -5 28 -12z"/>
<path d="M4691 4850 c-155 -159 -270 -270 -281 -270 -10 0 -42 22 -72 49 l-53
49 -29 -25 c-16 -13 -22 -23 -14 -21 8 2 43 -22 78 -54 l63 -56 -64 -68 -64
-68 68 59 c37 32 67 62 67 67 0 4 15 14 33 21 32 14 577 559 577 577 0 6 -10
10 -23 10 -17 0 -92 -71 -286 -270z"/>
<path d="M3320 5095 c-16 -19 0 -19 26 0 16 12 16 14 3 15 -9 0 -22 -7 -29
-15z"/>
<path d="M3130 5010 c0 -15 5 -20 18 -18 9 2 17 10 17 18 0 8 -8 16 -17 18
-13 2 -18 -3 -18 -18z"/>
<path d="M2567 5006 c-6 -15 11 -36 29 -36 14 0 23 20 17 38 -6 16 -40 15 -46
-2z"/>
<path d="M1086 4988 c10 -13 48 -54 83 -91 l64 -68 -7 -280 -6 -280 30 -37
c26 -31 30 -45 30 -95 0 -56 -2 -60 -49 -110 -40 -42 -52 -50 -62 -39 -22 21
-58 14 -71 -13 -6 -14 -15 -25 -20 -25 -12 0 -10 -28 3 -35 6 -4 13 2 16 14 3
13 13 21 27 21 18 0 14 -7 -25 -46 l-47 -46 22 -44 c23 -48 39 -57 34 -20 -3
23 16 56 33 56 5 0 9 -58 9 -129 l0 -128 -51 -47 c-41 -38 -53 -44 -69 -36
-34 18 -70 11 -101 -19 -24 -24 -29 -38 -29 -76 0 -61 32 -95 89 -95 77 0 128
76 102 152 -11 30 -10 34 16 53 77 55 75 50 72 220 l-3 154 72 74 72 75 0 79
c0 76 -2 81 -33 119 l-34 39 -6 279 -7 280 -72 72 c-40 41 -74 78 -76 84 -2 5
-8 10 -14 10 -6 0 -3 -10 8 -22z m-38 -1551 c2 -9 -2 -17 -8 -17 -7 0 -10 -7
-6 -15 6 -17 -19 -45 -40 -45 -8 0 -23 14 -33 31 -27 45 -12 68 43 65 29 -2
42 -7 44 -19z"/>
<path d="M480 4951 c0 -47 -2 -50 -76 -121 -52 -49 -73 -75 -66 -82 7 -7 33
11 81 59 l71 69 0 62 c0 34 -2 62 -5 62 -3 0 -5 -22 -5 -49z"/>
<path d="M4945 4930 l-70 -70 -5 -126 c-5 -117 -8 -128 -29 -145 -16 -13 -39
-19 -74 -19 l-51 0 57 58 c31 32 57 62 57 67 0 5 -31 -21 -69 -59 -60 -59 -73
-68 -95 -62 -31 8 -54 -3 -107 -51 l-39 -35 0 -177 c0 -97 4 -180 8 -186 4 -5
57 -58 118 -117 l111 -108 54 0 54 1 130 124 c71 68 126 127 122 131 -4 4 -62
-47 -130 -114 l-123 -122 -50 0 c-49 0 -50 1 -142 93 l-92 92 0 151 c0 137 2
154 20 177 12 15 33 32 48 39 15 7 34 28 42 45 14 31 18 33 72 33 46 0 62 5
87 26 l31 26 0 117 0 117 43 42 c41 40 43 41 55 22 17 -28 33 -25 67 10 32 33
29 50 -11 76 -18 13 -26 7 -89 -56z m-340 -426 c16 -25 16 -27 -11 -55 -26
-27 -29 -36 -30 -112 -4 -238 -3 -230 -19 -217 -12 10 -15 44 -15 183 l0 171
27 28 c15 15 28 28 29 28 1 0 9 -12 19 -26z"/>
<path d="M4734 4964 c3 -9 6 -17 6 -20 0 -2 7 -1 15 2 12 5 13 10 4 20 -16 19
-33 18 -25 -2z"/>
<path d="M4650 4905 c-24 -25 -39 -45 -33 -45 10 0 83 74 83 85 0 10 -6 5 -50
-40z"/>
<path d="M3844 4805 c-128 -123 -141 -134 -169 -129 -60 11 -89 -66 -36 -93
32 -15 52 -4 90 50 25 36 123 128 260 245 34 29 39 62 8 62 -7 0 -76 -61 -153
-135z"/>
<path d="M4090 4934 c0 -4 8 -13 18 -20 15 -12 10 -20 -62 -93 -44 -44 -82
-80 -85 -79 -41 4 -56 -27 -26 -52 21 -17 48 -4 42 20 -4 15 15 39 79 99 46
44 84 85 84 92 0 6 -8 18 -17 25 -20 15 -33 18 -33 8z"/>
<path d="M634 4876 c-10 -26 4 -48 28 -44 17 2 23 10 23 28 0 18 -6 26 -23 28
-13 2 -25 -3 -28 -12z"/>
<path d="M3930 4784 c-47 -47 -133 -130 -192 -185 l-106 -100 -58 41 c-31 22
-61 40 -65 40 -5 0 -35 17 -66 37 -49 32 -68 38 -126 41 -38 3 -80 -1 -96 -8
-41 -16 -267 -249 -286 -293 -8 -20 -15 -46 -15 -57 0 -17 -6 -20 -39 -20 -23
0 -48 -8 -64 -20 -22 -17 -40 -20 -132 -20 -91 0 -106 -2 -101 -15 3 -10 -1
-15 -13 -15 -21 0 -36 -29 -22 -43 17 -17 46 -3 49 26 l3 27 95 0 c86 0 98 2
128 25 19 14 46 25 64 25 l32 0 0 -79 c0 -63 -3 -80 -16 -85 -28 -11 -71 -6
-84 9 -7 8 -23 15 -37 15 -13 0 -26 -7 -29 -15 -5 -12 -32 -15 -153 -15 -190
-1 -211 -6 -277 -71 -30 -30 -54 -57 -54 -61 0 -19 25 -5 64 34 75 76 83 78
252 78 123 0 154 -3 164 -15 18 -22 56 -18 74 6 12 18 20 20 55 14 l41 -7 1
-106 c0 -104 1 -108 27 -128 15 -11 40 -24 57 -28 16 -4 68 -33 115 -64 l85
-57 -49 -3 c-45 -3 -52 0 -90 36 -23 21 -57 49 -76 62 -19 13 -67 54 -105 91
-54 53 -80 70 -115 78 -52 12 -168 14 -290 4 l-85 -6 -136 -134 -135 -133
-146 0 c-183 0 -178 4 -178 -138 0 -95 1 -102 25 -120 22 -18 25 -27 25 -85 0
-45 -4 -68 -15 -77 -12 -10 -15 -41 -15 -161 0 -104 -3 -149 -11 -149 -8 0 -8
-4 -1 -12 5 -7 12 -48 14 -90 l3 -78 -106 0 c-86 0 -108 3 -113 15 -8 21 -39
19 -59 -3 -21 -23 -21 -27 -1 -46 21 -21 41 -20 61 4 15 17 30 20 114 20 l97
0 7 -29 c3 -16 13 -35 21 -42 8 -7 14 -29 14 -55 0 -78 36 -67 41 13 l4 52
-30 -2 -30 -2 -3 73 c-2 45 1 72 8 72 7 0 10 94 10 285 l0 285 30 0 30 0 0
-160 c0 -100 4 -160 10 -160 6 0 10 57 10 151 0 84 5 159 10 170 9 16 22 19
95 19 47 0 85 -3 85 -7 0 -4 -21 -29 -47 -55 -43 -44 -47 -52 -51 -107 -3 -42
-10 -65 -23 -77 -17 -15 -19 -33 -19 -175 0 -87 4 -169 10 -183 11 -30 72 -99
111 -127 31 -22 58 -17 38 7 -6 7 -15 12 -18 9 -13 -7 -94 82 -86 95 5 8 10 8
21 -1 7 -6 11 -15 8 -20 -3 -5 0 -8 8 -7 7 2 12 -4 10 -13 -1 -9 5 -23 15 -30
15 -12 16 -12 9 6 -6 16 -1 14 23 -9 17 -17 31 -26 31 -22 0 5 7 3 15 -4 8 -7
15 -9 15 -6 0 4 -34 39 -76 79 -59 57 -76 78 -77 102 0 17 0 117 1 223 l2 193
44 46 c32 35 48 45 62 39 16 -6 12 -12 -29 -47 l-47 -41 0 -213 0 -214 126
-131 126 -130 154 0 c96 0 154 -4 154 -10 0 -8 -220 -17 -308 -12 -13 0 -46
21 -73 46 -28 25 -55 46 -59 46 -28 0 -15 -29 37 -81 l60 -59 76 0 c42 0 79 5
82 10 3 6 51 10 109 10 57 0 172 3 257 7 l154 6 82 80 c92 89 106 119 19 39
-68 -61 -76 -63 -309 -60 -153 2 -177 5 -175 18 4 19 169 33 304 26 89 -5 93
-4 130 23 22 15 87 78 146 140 116 122 125 139 116 232 -4 36 -12 58 -32 78
-19 19 -26 38 -26 65 0 45 -12 70 -56 116 l-33 35 39 41 c21 23 49 44 62 47
36 9 58 -43 58 -139 0 -69 3 -78 31 -114 l31 -38 -4 -111 -3 -110 -39 -40
c-55 -56 -38 -63 19 -9 l47 44 5 86 c7 109 -1 150 -37 192 -27 31 -30 40 -30
105 0 40 -6 84 -13 99 -18 36 -11 242 8 242 9 0 14 -23 16 -80 4 -79 4 -80 49
-125 l44 -45 177 0 178 0 75 67 76 66 0 69 0 68 -50 48 c-27 26 -50 53 -50 59
0 6 43 52 96 102 l96 91 73 0 c101 0 105 -6 105 -146 0 -92 -3 -114 -20 -139
-14 -21 -20 -47 -20 -85 0 -53 -2 -56 -57 -112 -32 -32 -62 -58 -67 -58 -5 0
-18 7 -28 16 -14 14 -20 14 -33 4 -18 -15 -19 -41 -2 -59 10 -10 -4 -28 -70
-92 -46 -44 -83 -82 -83 -84 0 -20 37 6 100 70 76 76 100 90 100 57 0 -11 9
-27 20 -37 19 -17 20 -17 20 0 0 10 -7 23 -16 29 -14 11 -14 13 0 25 11 9 16
10 16 2 0 -6 7 -11 15 -11 20 0 19 19 0 27 -12 4 0 22 50 73 l65 68 -2 70 c-1
51 3 77 15 96 13 20 17 50 17 141 0 115 0 117 -29 146 -27 27 -35 29 -100 29
l-70 0 -89 -85 c-49 -47 -95 -85 -101 -85 -8 0 -11 49 -11 160 l0 161 33 34
32 33 33 -34 c28 -29 39 -34 80 -34 43 0 52 4 92 45 24 25 49 45 55 45 10 0
158 -133 303 -273 l83 -81 -124 -125 c-183 -187 -177 -177 -177 -277 l0 -85
-47 -51 -48 -50 -7 -127 c-5 -69 -11 -224 -14 -343 l-6 -218 -93 0 c-102 0
-105 2 -105 72 0 40 -10 57 -41 73 -44 23 -93 19 -129 -11 l-31 -27 3 -237 c2
-190 0 -236 -9 -228 -9 7 -13 43 -13 113 0 135 -12 345 -19 345 -3 0 -8 -102
-9 -228 -4 -218 -3 -228 17 -254 28 -35 27 -69 -4 -98 -30 -28 -31 -41 -6 -64
13 -12 33 -16 66 -15 42 3 50 -1 71 -27 l24 -29 -115 -3 c-77 -2 -115 -6 -115
-14 0 -8 36 -9 128 -5 l127 7 -80 -74 c-77 -71 -80 -73 -103 -58 -18 12 -28
12 -47 4 -24 -11 -44 -56 -31 -69 4 -4 -13 -26 -36 -50 l-42 -43 -109 0 -109
0 -174 -170 c-96 -93 -179 -170 -184 -170 -5 0 -16 14 -25 30 -9 17 -18 30
-21 30 -3 0 3 -16 15 -36 l21 -35 -56 -52 c-31 -29 -61 -53 -65 -55 -5 -2 -9
40 -9 93 l0 96 -51 55 c-47 48 -56 54 -93 54 -37 0 -48 -6 -91 -50 l-49 -50
-95 0 c-89 0 -97 2 -123 27 -26 25 -42 21 -16 -5 10 -10 7 -16 -12 -29 -63
-44 -71 -61 -68 -144 3 -74 2 -79 -26 -108 -17 -17 -33 -31 -38 -31 -4 0 -8
53 -8 117 l0 117 69 68 c65 64 73 68 115 68 32 0 52 -7 73 -24 44 -37 71 -48
79 -34 4 6 -14 31 -44 60 -45 43 -55 48 -97 48 -66 0 -102 -19 -167 -88 l-58
-61 0 -179 c0 -98 5 -192 10 -208 6 -17 52 -68 102 -114 l92 -85 169 0 169 0
24 28 c21 25 24 38 24 115 0 77 3 90 27 125 15 21 35 43 45 48 16 9 18 5 16
-31 -1 -36 4 -46 46 -89 l47 -48 -35 -35 c-20 -20 -43 -38 -51 -42 -18 -6 -20
-42 -3 -52 13 -8 40 24 31 39 -3 5 32 47 78 93 69 70 88 84 107 79 18 -4 32 3
58 29 42 42 43 59 5 94 -16 15 -32 37 -36 50 -9 30 -23 28 -17 -3 2 -14 9 -25
14 -25 5 0 7 -4 4 -8 -3 -5 4 -16 15 -25 23 -20 24 -35 3 -65 -9 -14 -26 -22
-43 -22 -16 0 -40 -9 -54 -20 -14 -11 -30 -20 -35 -20 -6 0 -31 23 -56 51 -38
42 -46 58 -46 89 0 33 7 44 61 94 53 49 63 55 77 44 15 -11 15 -11 6 2 -9 12
18 43 153 170 90 85 176 163 191 173 23 15 45 18 154 15 l127 -3 33 32 c19 18
41 33 49 33 19 0 59 41 59 61 0 8 31 46 70 84 l70 69 33 -32 c18 -18 41 -32
50 -32 23 0 33 28 19 51 -15 24 -15 29 2 29 8 0 16 -7 20 -15 3 -9 17 -15 38
-14 20 1 25 3 13 6 -68 15 -7 30 134 32 l63 1 72 70 c47 46 87 75 116 85 57
20 70 38 70 96 l0 48 -45 7 c-62 9 -85 -11 -85 -75 0 -45 -3 -50 -75 -121
l-76 -75 -57 -1 c-31 0 -82 -4 -112 -9 l-56 -7 -92 101 -92 102 31 39 c18 22
33 40 34 40 0 0 1 -31 1 -69 l0 -69 69 -66 c39 -36 75 -65 82 -66 6 0 18 7 27
15 10 10 36 15 83 15 l69 0 67 63 c36 34 67 69 68 77 1 8 1 68 0 132 -1 115
-1 118 -31 152 l-30 34 49 53 c27 30 48 56 45 58 -2 3 -28 -18 -57 -47 l-52
-51 -20 22 c-11 12 -37 37 -58 55 l-39 33 6 192 c2 106 11 255 18 333 13 140
13 141 51 187 37 45 37 46 37 137 0 88 1 94 32 134 47 62 251 266 265 266 7 0
13 4 13 8 0 5 -82 84 -182 177 -101 92 -186 176 -190 187 -4 10 -13 18 -20 18
-6 0 2 15 20 33 29 30 32 38 32 98 l0 66 -58 55 c-93 89 -134 89 -224 3 l-58
-55 0 -113 0 -113 -35 -34 -35 -34 0 -194 c0 -150 -3 -193 -12 -190 -10 4 -14
69 -18 264 -5 248 -6 261 -29 307 -14 29 -42 62 -67 80 -24 18 -42 34 -41 37
3 8 182 175 290 270 85 76 113 110 89 110 -4 0 -46 -39 -92 -86z m-635 -244
c0 -22 -29 -18 -33 3 -3 14 1 18 15 15 10 -2 18 -10 18 -18z m60 11 c7 -12
-12 -24 -25 -16 -11 7 -4 25 10 25 5 0 11 -4 15 -9z m58 -39 c-2 -41 1 -44 82
-114 70 -61 84 -78 85 -103 l0 -29 -16 22 c-27 39 -136 124 -146 114 -5 -5
-41 -7 -81 -5 l-72 4 -60 -55 c-33 -30 -55 -55 -49 -56 7 0 34 20 62 45 l50
45 93 0 94 0 53 -51 52 -50 0 -136 0 -136 -46 -53 -46 -54 -94 0 c-57 0 -93
-4 -89 -9 3 -6 -9 -9 -27 -8 -47 3 -116 61 -128 106 -5 20 -12 95 -16 166 l-6
130 71 70 71 70 73 6 72 6 -71 1 -72 2 -68 -61 c-38 -34 -75 -68 -81 -77 -14
-17 -16 -128 -5 -253 6 -57 4 -75 -5 -72 -19 8 -23 28 -29 177 l-7 142 97 91
c98 92 119 103 196 103 27 0 57 34 40 45 -13 8 -2 27 13 22 7 -2 11 -22 10
-45z m707 6 c11 -9 17 -35 19 -90 2 -68 0 -78 -20 -97 -33 -30 -93 -28 -124 4
-20 19 -25 34 -25 75 0 43 -3 51 -17 49 -34 -3 -43 1 -43 19 0 27 10 33 32 21
17 -9 26 -6 52 19 17 16 38 32 46 34 15 5 51 -10 80 -34z m-946 -5 c8 -9 -64
-83 -81 -83 -23 0 -14 22 25 56 39 35 45 38 56 27z m390 -29 c19 -7 21 -34 3
-34 -14 0 -37 20 -37 32 0 10 13 10 34 2z m71 -64 c11 -17 -5 -32 -21 -19 -8
6 -14 15 -14 20 0 12 27 11 35 -1z m-637 -164 c3 -13 -1 -17 -14 -14 -11 2
-20 11 -22 22 -3 13 1 17 14 14 11 -2 20 -11 22 -22z m638 -23 l34 -28 0 -113
c0 -128 14 -103 -136 -244 -45 -43 -79 -79 -76 -82 3 -4 -2 -6 -11 -6 -9 0
-14 6 -11 13 6 17 -32 57 -56 57 -10 0 -24 2 -32 3 -7 2 -10 2 -5 -1 10 -5
-52 -62 -69 -62 -7 0 -28 20 -46 45 -32 42 -48 55 -48 36 0 -4 16 -29 35 -55
l36 -46 95 0 c53 0 93 -4 90 -9 -3 -5 -44 -9 -92 -10 -85 -1 -86 -1 -112 31
-15 18 -42 46 -61 63 -19 16 -61 54 -93 84 l-58 54 0 69 c0 61 2 69 18 66 13
-2 18 -15 20 -56 3 -49 7 -56 60 -108 31 -31 67 -60 80 -65 13 -5 80 -9 149
-9 l125 0 64 56 64 56 -2 142 -2 141 -3 -129 c-3 -108 -6 -131 -21 -142 -27
-21 -38 -16 -14 6 20 19 22 30 22 145 0 81 4 125 11 125 5 0 26 -12 45 -27z
m51 -120 c-2 -16 -4 -3 -4 27 0 30 2 43 4 28 2 -16 2 -40 0 -55z m40 -50 c-2
-21 -4 -6 -4 32 0 39 2 55 4 38 2 -18 2 -50 0 -70z m-719 53 c3 -13 -1 -17
-14 -14 -11 2 -20 11 -22 22 -3 13 1 17 14 14 11 -2 20 -11 22 -22z m-34 -175
c23 -25 11 -28 -16 -4 -14 13 -18 30 -16 82 l1 66 6 -61 c4 -40 13 -69 25 -83z
m8 72 c2 -23 0 -39 -4 -37 -5 3 -7 29 -7 57 1 56 6 48 11 -20z m738 -4 c0 -15
-18 -19 -23 -6 -3 8 1 14 9 14 8 0 14 -4 14 -8z m-37 -63 c-11 -20 -179 -176
-189 -176 -7 0 186 188 194 190 2 0 -1 -6 -5 -14z m-833 -54 c19 -21 58 -55
85 -77 28 -22 77 -63 109 -92 58 -52 60 -53 123 -53 l63 0 0 -58 c0 -57 -1
-59 -35 -75 -42 -20 -69 -22 -59 -5 5 8 2 9 -11 4 -14 -5 -16 -4 -6 7 9 12 -9
32 -89 106 -55 50 -95 91 -89 91 6 0 49 -37 95 -82 46 -45 87 -78 91 -74 10
10 -145 164 -187 186 -32 17 -69 52 -155 148 l-30 33 30 -11 c17 -6 46 -28 65
-48z m230 -19 c43 -44 55 -60 29 -37 -43 37 -116 114 -107 114 2 0 37 -35 78
-77z m650 68 c0 -5 -30 -36 -67 -68 -37 -32 -83 -75 -102 -95 -20 -21 -40 -38
-46 -38 -11 1 195 208 208 209 4 1 7 -3 7 -8z m-1288 -57 l-52 -46 0 -61 c0
-105 -11 -126 -113 -223 l-92 -88 -3 94 c-2 67 -7 99 -18 111 -14 15 -3 27
120 138 122 109 140 121 173 121 l38 0 -53 -46z m382 -26 l69 -73 -101 -6
c-56 -3 -104 -8 -108 -11 -17 -18 15 -26 103 -27 54 -1 102 -6 107 -11 6 -6
17 -10 25 -10 13 0 155 -129 174 -157 19 -30 -26 -10 -73 32 l-51 45 -236 0
-236 0 -51 -47 c-28 -26 -53 -52 -55 -58 -2 -5 22 14 53 43 l58 52 234 0 235
0 35 -34 c20 -19 37 -43 39 -53 1 -10 7 -17 12 -16 4 1 20 -8 33 -19 l25 -20
-27 16 c-31 19 -36 12 -11 -16 20 -22 32 -23 47 -2 7 9 37 22 67 28 l54 12 3
72 c4 104 22 89 22 -17 0 -81 -2 -90 -20 -96 -11 -4 -33 -4 -48 0 -23 5 -34
-1 -67 -35 -21 -22 -42 -40 -46 -40 -3 0 -34 25 -68 55 l-62 55 -324 0 c-239
0 -325 3 -325 12 0 6 23 35 50 64 l50 53 0 89 0 90 56 51 56 51 116 0 117 0
69 -72z m156 11 c0 -16 -4 -29 -10 -29 -5 0 -10 16 -10 36 0 21 4 33 10 29 6
-3 10 -19 10 -36z m132 -74 c15 -21 -3 -16 -37 9 -19 15 -42 41 -51 59 -16 31
-15 30 32 -13 27 -25 52 -49 56 -55z m601 73 c2 -7 -6 -20 -18 -28 -12 -8 -42
-30 -65 -48 -24 -17 -45 -30 -47 -28 -5 4 109 116 119 116 3 0 8 -6 11 -12z
m27 -43 c11 -13 10 -14 -4 -9 -19 7 -34 -22 -18 -38 8 -8 15 -8 27 2 12 10 15
10 15 -3 0 -8 -20 -31 -45 -52 l-46 -37 -214 6 c-211 5 -216 5 -248 31 -19 14
-41 25 -50 25 -10 0 -17 7 -17 15 0 25 24 17 60 -20 l34 -35 157 0 c127 0 159
3 169 15 7 8 18 15 24 15 6 0 38 22 71 49 33 28 63 50 66 50 4 1 12 -6 19 -14z
m-325 -25 c3 -5 -3 -10 -14 -10 -10 0 -28 -3 -38 -7 -14 -6 -11 -9 17 -14 31
-6 28 -7 -19 -8 l-54 -1 23 25 c24 25 73 34 85 15z m84 -43 c-2 -1 -13 -9 -24
-17 -19 -14 -19 -14 -6 3 7 9 18 17 24 17 6 0 8 -1 6 -3z m292 -43 c12 -15 7
-23 -44 -69 -32 -29 -65 -52 -75 -51 -11 1 -18 -7 -20 -22 -3 -22 -7 -23 -80
-20 l-77 3 -5 44 c-7 66 -30 65 -32 -1 l-2 -53 -3 46 c-4 41 -7 47 -29 52
l-25 4 3 -76 3 -76 49 -25 50 -25 -34 -3 c-27 -3 -39 2 -57 23 -20 22 -23 37
-23 106 0 50 -4 79 -11 79 -7 0 -9 -28 -7 -80 2 -66 1 -77 -9 -63 -15 20 -18
167 -4 159 5 -4 11 -3 13 1 1 5 53 7 115 5 106 -3 112 -4 115 -25 4 -30 42
-34 60 -8 15 21 98 91 109 91 4 0 13 -7 20 -16z m89 -97 c0 -68 -14 -65 -27 5
l-12 63 4 -55 c1 -30 4 -62 6 -71 3 -11 -18 -36 -54 -68 l-58 -51 -108 0
c-103 0 -108 1 -132 26 -23 25 -23 26 -2 15 12 -6 60 -11 107 -11 l86 0 57 52
c32 28 61 56 65 62 4 6 8 40 8 76 l1 65 29 -33 c24 -25 30 -42 30 -75z m-97
-29 c-30 -34 -50 -40 -68 -22 -15 16 -13 20 32 66 l48 49 3 -36 c2 -25 -3 -43
-15 -57z m-337 -65 c19 -7 18 -23 -1 -23 -23 0 -37 48 -28 95 l8 40 3 -53 c2
-35 8 -55 18 -59z m204 7 c0 -6 -31 -9 -77 -8 l-78 2 75 6 c41 4 76 7 78 8 1
1 2 -2 2 -8z m-1012 -37 l325 -6 50 -48 49 -47 -23 -31 c-17 -23 -20 -33 -11
-44 9 -11 -25 -49 -163 -187 l-174 -173 -40 6 c-51 6 -79 -14 -117 -83 l-27
-50 -83 0 c-73 0 -85 3 -94 20 -7 12 -9 103 -8 252 l3 233 102 5 103 5 50 51
c71 70 64 84 -44 85 -44 0 -119 4 -166 8 l-85 8 -52 -50 c-29 -28 -55 -48 -58
-45 -10 10 107 109 122 104 8 -4 161 -9 341 -13z m-383 -76 c-34 -34 -76 -82
-93 -106 l-32 -44 0 -162 c0 -190 -3 -183 117 -272 71 -52 80 -63 67 -76 -10
-10 -192 143 -198 167 -3 11 -6 99 -6 194 l0 173 91 94 c51 52 97 95 103 95 7
0 -16 -28 -49 -63z m342 40 c3 -4 4 -8 2 -10 -2 -1 -23 -19 -47 -40 l-42 -37
-98 0 c-143 0 -136 14 -142 -273 -4 -174 -8 -231 -18 -235 -7 -2 -30 14 -52
36 l-40 40 0 159 0 159 31 30 32 29 -7 -180 c-4 -122 -3 -175 4 -165 5 9 10
87 10 183 l0 169 53 55 c43 44 60 55 95 60 23 3 42 10 42 15 0 6 -10 8 -22 4
-13 -3 -31 -6 -41 -6 -10 0 -46 -26 -80 -58 -104 -97 -117 -101 -27 -9 l85 88
127 -4 c71 -2 131 -7 135 -10z m566 -144 c23 -32 27 -45 26 -95 -2 -51 1 -62
24 -86 21 -22 27 -38 27 -74 0 -26 -3 -53 -6 -61 -3 -8 -64 -70 -135 -137
l-130 -122 -197 7 -197 7 -27 39 -28 39 31 52 c38 65 42 68 104 68 l49 0 171
168 c157 153 242 231 255 231 3 0 17 -16 33 -36z m-633 -543 c12 -12 18 -25
15 -31 -8 -12 -25 -2 -25 16 0 7 -20 17 -47 23 l-48 10 43 1 c30 1 48 -5 62
-19z m-143 3 c-25 -4 -28 -8 -23 -29 4 -13 2 -24 -3 -24 -15 0 -21 15 -14 38
4 17 12 22 37 21 l31 -2 -28 -4z m357 -74 c-4 -8 -30 -9 -78 -4 -59 5 -75 4
-85 -9 -14 -17 -43 -21 -55 -9 -13 13 68 31 147 32 55 1 76 -2 71 -10z m1094
-1 c7 -7 12 -29 12 -50 0 -37 -1 -38 -34 -38 -35 0 -46 12 -46 54 0 26 17 46
40 46 9 0 21 -5 28 -12z m-856 -83 c-25 -18 -164 -28 -199 -14 -52 20 -20 29
99 29 113 0 121 -1 100 -15z m1026 -31 c13 -4 22 -14 22 -25 0 -15 -7 -19 -36
-19 -29 0 -45 -9 -90 -51 -40 -38 -54 -59 -54 -79 0 -27 -42 -114 -61 -125 -5
-4 -9 21 -9 57 l1 63 89 93 c91 93 97 97 138 86z m210 -68 l62 -64 0 -99 c0
-54 4 -104 9 -112 13 -21 2 -42 -53 -105 l-50 -56 -78 0 c-91 0 -119 11 -171
69 l-37 41 0 128 c1 84 5 132 13 143 20 26 53 39 100 39 39 0 51 -6 96 -46 49
-44 51 -48 51 -98 0 -45 4 -56 30 -81 38 -36 38 -51 0 -86 -28 -27 -35 -29
-113 -29 -122 0 -127 5 -127 134 0 105 4 116 41 116 5 0 9 -40 9 -89 0 -85 1
-91 26 -110 27 -21 75 -26 122 -13 40 12 23 27 -26 24 -26 -2 -59 1 -74 7 -25
10 -27 13 -30 95 -3 96 2 102 62 71 32 -16 46 -51 35 -84 -10 -31 -25 -25 -19
7 4 20 0 33 -14 45 -23 21 -27 17 -36 -35 -5 -27 -2 -40 10 -53 25 -25 66 -15
83 19 22 46 5 93 -49 134 -39 30 -49 33 -85 28 -65 -10 -75 -30 -75 -158 0
-105 1 -110 26 -133 24 -23 35 -25 116 -25 150 0 178 30 178 191 l0 103 -54
50 c-29 28 -56 58 -58 66 -4 12 -7 10 -16 -7 -11 -20 -7 -26 43 -69 l55 -48 0
-73 c0 -71 -1 -73 -20 -63 -16 9 -20 21 -20 66 0 50 -3 58 -41 99 -23 25 -50
45 -61 45 -18 0 -16 5 13 39 19 22 41 40 50 40 9 1 44 -28 77 -63z m-380 28
c32 -9 28 -24 -24 -74 l-45 -45 2 -81 c1 -45 -1 -86 -5 -93 -19 -30 -23 0 -19
122 7 168 18 190 91 171z m612 -310 c0 -9 -7 -14 -17 -12 -25 5 -28 28 -4 28
12 0 21 -6 21 -16z m-601 -127 c54 -59 70 -83 59 -85 -23 -4 -148 120 -148
147 0 11 3 21 8 20 4 0 40 -38 81 -82z m-124 -5 c-22 -5 -27 1 -19 23 7 17 8
17 21 -1 12 -17 12 -19 -2 -22z m222 -127 c6 -14 9 -25 7 -25 -11 0 -54 33
-54 41 0 20 36 7 47 -16z m-1235 -502 l47 -48 3 -112 3 -112 -36 -38 c-50 -52
-56 -66 -64 -163 -4 -47 -12 -91 -17 -97 -14 -18 -45 -16 -52 2 -3 8 -12 12
-21 9 -8 -3 -12 -10 -9 -15 3 -5 -11 -9 -30 -9 -20 0 -36 2 -36 5 0 3 21 28
46 55 37 40 45 55 41 76 -3 19 3 35 24 59 27 31 29 38 29 119 l0 87 -46 49
c-41 44 -76 68 -59 40 3 -5 -5 -12 -19 -16 -44 -11 -51 1 -15 26 19 13 60 47
91 77 31 29 60 53 65 53 5 0 30 -21 55 -47z m-347 -83 c47 -43 61 -50 96 -50
22 0 49 5 60 11 16 8 27 4 59 -21 l40 -32 0 -92 c0 -86 -2 -94 -25 -116 -18
-16 -25 -34 -25 -59 0 -29 -9 -45 -52 -88 l-52 -53 -81 0 -80 0 -77 78 c-63
63 -78 84 -83 117 -6 37 -4 43 34 80 l41 39 0 87 0 88 37 30 c21 17 41 31 45
31 4 0 33 -22 63 -50z m125 19 c0 -14 -38 -49 -53 -49 -8 0 -31 15 -51 33
l-38 32 71 -3 c39 -2 71 -8 71 -13z m360 -324 c18 -19 31 -37 29 -40 -3 -2
-23 13 -44 35 -22 22 -35 40 -29 40 6 0 25 -16 44 -35z"/>
<path d="M3174 4125 c-10 -25 4 -45 30 -45 25 0 39 20 30 45 -4 8 -17 15 -30
15 -14 0 -27 -7 -30 -15z"/>
<path d="M3292 3843 c-6 -2 -10 -9 -7 -13 7 -11 35 -2 35 11 0 10 -8 10 -28 2z"/>
<path d="M3662 3758 c-16 -16 -15 -25 2 -31 21 -8 40 17 23 31 -10 9 -17 8
-25 0z"/>
<path d="M2739 3391 c-37 -37 -38 -79 -3 -120 54 -64 159 -26 159 57 0 87 -94
125 -156 63z"/>
<path d="M2800 3034 c0 -8 210 -214 218 -214 4 0 -43 50 -103 110 -60 61 -111
110 -112 110 -2 0 -3 -3 -3 -6z"/>
<path d="M1957 4824 c-14 -14 -7 -35 11 -32 9 2 17 10 17 17 0 16 -18 25 -28
15z"/>
<path d="M4481 4719 c-46 -44 -82 -82 -78 -85 3 -3 43 31 88 75 46 44 81 82
79 84 -3 3 -43 -31 -89 -74z"/>
<path d="M2394 4755 c-22 -33 -6 -72 31 -81 l27 -7 -3 -150 c-2 -110 0 -152 9
-155 9 -3 12 36 12 151 0 114 4 162 14 182 16 30 12 53 -12 73 -26 20 -60 14
-78 -13z"/>
<path d="M3291 4746 c-7 -8 -11 -27 -9 -43 2 -24 8 -28 36 -31 57 -6 82 37 44
71 -23 21 -56 22 -71 3z"/>
<path d="M2584 4706 c-7 -19 3 -36 22 -36 10 0 14 8 12 22 -4 26 -26 36 -34
14z"/>
<path d="M4227 4713 c-11 -10 -8 -41 3 -48 15 -9 40 14 40 36 0 19 -29 27 -43
12z"/>
<path d="M181 4585 c-68 -69 -126 -125 -131 -125 -4 0 -13 7 -20 15 -24 29
-30 14 -30 -75 0 -87 1 -90 20 -78 17 11 18 15 6 26 -11 12 13 39 155 175 129
124 166 164 157 174 -6 7 -16 13 -23 13 -6 0 -67 -56 -134 -125z"/>
<path d="M882 4694 c-34 -23 -27 -83 11 -104 24 -13 30 -13 54 0 15 9 32 28
37 43 8 22 6 31 -14 52 -27 29 -56 32 -88 9z"/>
<path d="M2710 4692 c0 -10 8 -13 28 -9 21 4 35 -2 61 -26 l35 -32 -22 35
c-17 28 -29 36 -62 41 -31 4 -40 2 -40 -9z"/>
<path d="M437 4574 c-181 -169 -181 -171 -82 -273 l65 -68 0 -260 c0 -223 -2
-262 -15 -267 -10 -3 -15 -19 -15 -46 l0 -41 -25 18 -24 18 -1 217 c0 122 -4
228 -10 244 -12 29 -97 120 -105 112 -3 -3 17 -34 45 -68 l50 -63 0 -232 c0
-127 -4 -235 -9 -240 -5 -6 -6 -40 -2 -79 6 -60 11 -72 39 -97 30 -27 39 -29
110 -29 74 0 79 -2 92 -25 18 -34 57 -34 66 0 5 21 10 23 37 18 l32 -6 -29 34
c-41 49 -62 57 -125 52 -51 -5 -58 -3 -81 22 l-25 28 86 -5 c48 -3 92 -2 99 2
6 4 10 18 8 31 -2 19 -10 25 -38 27 -36 4 -80 36 -80 59 0 9 15 13 48 13 44 0
51 -4 115 -63 l67 -63 0 -98 0 -98 -105 -108 c-58 -59 -105 -112 -105 -117 0
-24 14 -16 68 36 31 31 88 83 125 116 l67 60 0 109 0 109 -76 76 c-63 64 -72
77 -55 79 12 2 21 8 21 14 0 5 6 8 13 6 6 -3 12 -11 12 -18 0 -7 9 -18 20 -24
11 -6 37 -21 58 -34 l39 -23 60 60 60 60 -4 61 c-5 70 -11 76 -81 85 -45 7
-53 4 -103 -30 -58 -40 -74 -61 -74 -93 0 -21 -18 -32 -51 -32 -16 0 -19 7
-19 53 l0 52 93 93 92 92 58 0 c36 0 56 4 52 10 -3 6 -28 10 -55 10 -48 0 -53
-3 -134 -75 -117 -104 -126 -117 -126 -181 l0 -54 -39 0 -39 0 -7 126 -7 125
31 33 c56 58 32 65 -30 9 l-42 -38 7 125 7 125 -65 65 c-92 90 -91 95 36 214
56 53 107 96 113 96 13 0 89 -53 99 -68 3 -6 -38 -51 -91 -101 -53 -50 -95
-92 -92 -95 2 -2 50 39 106 92 l103 97 -28 31 c-35 39 -85 74 -107 74 -9 0
-53 -34 -98 -76z m23 -719 c0 -70 -4 -115 -10 -115 -6 0 -10 30 -10 69 0 68 9
161 16 161 2 0 4 -52 4 -115z m398 13 c20 -18 24 -19 19 -5 -4 9 -3 17 1 17
20 0 32 -29 32 -76 0 -47 -3 -55 -35 -83 -20 -17 -45 -31 -56 -31 -31 0 -87
48 -94 81 -8 36 24 85 69 105 40 17 36 18 64 -8z m-388 -233 c0 -19 -4 -35
-10 -35 -5 0 -10 16 -10 35 0 19 5 35 10 35 6 0 10 -16 10 -35z m-86 -54 c15
-15 26 -33 24 -40 -2 -6 17 -29 42 -51 l45 -39 -56 -1 c-72 0 -94 22 -103 103
-7 67 4 74 48 28z m224 -148 c5 -17 -26 -29 -40 -15 -6 6 -7 15 -3 22 9 14 37
9 43 -7z"/>
<path d="M781 3844 c-18 -14 -37 -36 -43 -48 -7 -14 3 -9 30 17 23 20 47 37
52 37 19 0 50 -40 50 -63 0 -24 -37 -67 -58 -67 -6 0 -14 -4 -17 -10 -14 -22
27 -8 61 22 31 27 35 36 30 62 -7 33 -42 76 -62 76 -7 0 -26 -12 -43 -26z"/>
<path d="M756 3773 c-8 -20 19 -44 40 -36 17 6 18 25 2 41 -17 17 -35 15 -42
-5z"/>
<path d="M1358 4618 c7 -7 12 -22 12 -34 0 -28 -46 -84 -69 -84 -18 0 -41 -18
-41 -32 0 -10 27 -10 32 0 2 4 22 23 46 42 38 30 42 38 42 77 0 34 -4 43 -17
43 -13 0 -14 -3 -5 -12z"/>
<path d="M1284 4605 c-4 -9 -2 -21 4 -27 15 -15 44 -1 40 19 -4 23 -36 29 -44
8z"/>
<path d="M2863 4604 c-8 -20 9 -49 28 -49 19 0 24 45 7 56 -19 13 -28 11 -35
-7z"/>
<path d="M2934 4495 c-62 -58 -76 -63 -145 -58 -54 5 -58 4 -98 -32 -22 -21
-41 -42 -41 -47 0 -6 18 6 40 26 39 35 43 36 117 36 73 0 78 2 127 38 28 21
61 44 74 51 12 7 20 16 17 22 -13 20 -44 7 -91 -36z"/>
<path d="M1685 4521 c-3 -5 -1 -12 5 -16 12 -7 30 2 30 16 0 12 -27 12 -35 0z"/>
<path d="M4822 4407 l-122 -124 0 -57 c0 -52 -3 -60 -35 -93 -21 -21 -32 -41
-27 -48 4 -7 36 -38 72 -69 100 -86 102 -86 271 81 76 75 139 144 139 152 0 9
-64 -48 -143 -127 -124 -124 -146 -142 -175 -142 -17 0 -32 5 -32 10 0 6 5 10
11 10 7 0 85 70 175 156 l164 156 -2 104 c0 57 -4 104 -8 104 -4 0 -15 -9 -25
-20 -23 -26 -27 -25 -63 5 -52 44 -67 36 -200 -98z m208 55 c0 -14 -140 -145
-147 -138 -7 7 126 146 139 146 5 0 8 -4 8 -8z"/>
<path d="M122 4398 c-67 -66 -121 -125 -120 -130 2 -5 51 39 108 98 98 101
146 154 138 154 -2 0 -58 -55 -126 -122z"/>
<path d="M664 4495 c-8 -19 12 -36 33 -28 19 7 12 37 -10 41 -9 2 -20 -4 -23
-13z"/>
<path d="M657 4333 c-4 -3 -7 -47 -7 -97 0 -68 -4 -98 -16 -114 -9 -13 -14
-25 -11 -28 2 -3 11 6 20 19 10 16 16 55 19 125 1 56 3 102 2 102 0 0 -4 -3
-7 -7z"/>
<path d="M121 4279 c-4 -12 -4 -42 0 -68 15 -93 14 -98 -56 -170 -36 -37 -65
-71 -65 -75 0 -5 27 16 60 44 63 54 90 94 90 129 0 11 10 41 22 65 18 38 20
49 10 71 -14 31 -50 33 -61 4z"/>
<path d="M76 4241 c-7 -10 18 -34 27 -25 7 8 -3 34 -13 34 -5 0 -11 -4 -14 -9z"/>
<path d="M1834 4239 c-3 -6 -2 -15 2 -19 12 -12 38 5 30 19 -9 14 -23 14 -32
0z"/>
<path d="M36 4154 c-54 -62 -40 -64 19 -4 27 28 43 50 35 49 -8 0 -33 -21 -54
-45z"/>
<path d="M4988 3913 l-126 -126 -37 31 c-19 18 -43 32 -51 32 -9 0 -58 -39
-110 -86 -73 -68 -94 -92 -94 -113 0 -20 -19 -46 -75 -101 -41 -41 -75 -79
-75 -84 0 -5 44 -51 97 -102 94 -89 96 -93 82 -115 -9 -13 -21 -25 -27 -27 -6
-2 -58 44 -116 103 -101 100 -106 107 -106 147 0 38 5 47 78 117 43 42 84 85
92 96 21 28 -75 -53 -134 -113 -46 -48 -49 -54 -49 -104 0 -50 3 -56 47 -99
l46 -46 0 -108 c0 -107 0 -107 31 -136 31 -29 32 -29 156 -29 80 0 122 -4 118
-10 -3 -5 -40 -10 -81 -10 l-75 0 -49 -46 c-50 -47 -50 -47 -50 -110 l0 -64
-79 0 c-86 0 -103 -9 -103 -56 0 -37 16 -44 104 -44 103 0 107 5 101 117 -5
74 -3 91 11 102 15 12 16 1 16 -129 l0 -142 -29 -29 c-24 -24 -38 -29 -76 -29
-43 0 -51 -4 -90 -47 -55 -60 -47 -77 11 -23 37 34 50 40 87 40 37 0 50 6 80
35 l37 36 0 159 c0 191 0 190 118 190 l73 0 113 108 c112 106 136 136 136 171
0 10 11 27 23 39 22 21 23 29 19 100 l-4 78 46 29 c25 16 44 31 41 33 -3 3
-22 -7 -43 -21 l-38 -25 4 52 c4 45 1 56 -22 83 -14 17 -26 35 -26 39 0 5 19
27 42 51 l42 43 23 -22 23 -21 0 52 c0 46 -2 52 -15 41 -8 -6 -19 -9 -25 -5
-5 3 -10 2 -10 -3 0 -5 -24 -33 -54 -63 l-54 -54 -48 43 -48 44 130 123 c71
67 127 125 124 128 -3 4 -63 -51 -132 -120z m-31 -255 l63 -62 0 -130 c0 -119
-2 -132 -22 -153 -24 -26 -58 -31 -58 -8 0 8 8 15 19 15 20 0 37 16 43 39 2
11 -8 15 -40 15 -50 1 -54 -7 -43 -86 l8 -57 -81 -80 -81 -79 -128 -7 -128 -7
-35 33 c-34 33 -34 34 -34 121 0 48 4 88 8 88 4 0 30 -22 57 -50 27 -27 54
-50 61 -50 6 0 32 24 57 54 l46 53 51 -5 c44 -4 55 -1 76 19 14 13 30 32 36
42 8 16 7 17 -9 9 -10 -6 -27 -20 -37 -31 -15 -16 -31 -21 -74 -21 -35 0 -61
-5 -72 -15 -15 -14 -25 -6 -108 77 l-92 92 67 68 67 68 41 -38 c22 -21 74 -70
116 -110 44 -41 86 -72 97 -72 31 0 181 139 182 168 0 7 -21 37 -48 65 -71 77
-86 97 -76 97 5 0 37 -28 71 -62z"/>
<path d="M4957 3466 c-48 -44 -50 -73 -3 -72 19 1 32 5 29 9 -3 4 1 14 7 22 8
10 9 15 2 15 -6 0 -14 -5 -17 -10 -4 -6 -11 -8 -16 -4 -6 4 -3 15 9 28 20 23
35 46 30 46 -2 0 -21 -15 -41 -34z"/>
<path d="M4870 3340 c0 -5 5 -10 10 -10 6 0 10 5 10 10 0 6 -4 10 -10 10 -5 0
-10 -4 -10 -10z"/>
<path d="M2207 3883 c-12 -12 -7 -41 7 -46 19 -7 40 18 32 38 -6 15 -28 20
-39 8z"/>
<path d="M3946 3843 c9 -38 14 -42 14 -10 0 14 -5 29 -10 32 -7 4 -8 -3 -4
-22z"/>
<path d="M2 3795 c1 -19 5 -32 10 -29 4 3 8 0 8 -5 0 -6 -4 -11 -10 -11 -5 0
-10 -10 -10 -22 0 -21 1 -21 30 7 36 34 38 58 8 79 -32 23 -38 20 -36 -19z"/>
<path d="M4575 3810 c-10 -11 -16 -22 -13 -25 3 -3 13 6 22 20 20 30 16 32 -9
5z"/>
<path d="M1309 3797 c-44 -34 -51 -96 -14 -133 14 -14 25 -33 25 -43 0 -10 9
-26 21 -37 18 -17 23 -17 47 -4 14 9 29 29 34 46 4 18 14 44 22 59 17 33 6 82
-25 108 -24 20 -86 22 -110 4z m96 -32 c28 -27 30 -37 13 -68 -6 -12 -13 -33
-14 -46 -5 -41 -13 -53 -36 -49 -16 2 -24 11 -26 29 -2 15 -12 35 -23 45 -25
22 -24 69 1 94 27 27 56 25 85 -5z"/>
<path d="M3942 3676 c-1 -115 -4 -131 -22 -148 -11 -10 -20 -23 -20 -28 0 -18
18 -10 39 16 18 23 21 40 20 133 -1 156 -15 178 -17 27z"/>
<path d="M1323 3513 c-21 -8 -15 -43 6 -43 11 0 23 5 27 11 8 14 -17 38 -33
32z"/>
<path d="M0 3370 c0 -86 3 -110 14 -110 22 0 62 37 75 69 9 21 18 27 32 24 13
-4 19 0 19 12 0 12 -6 16 -19 12 -14 -3 -21 2 -25 18 -6 23 -69 85 -86 85 -6
0 -10 -46 -10 -110z"/>
<path d="M5075 3445 c-43 -42 -31 -146 22 -180 l23 -15 0 110 c0 70 -4 110
-10 110 -6 0 -22 -11 -35 -25z"/>
<path d="M520 3361 c0 -10 30 -24 37 -17 3 3 2 9 -2 15 -8 13 -35 15 -35 2z"/>
<path d="M3489 3320 c-37 -22 -31 -92 9 -104 10 -3 23 -19 29 -36 11 -29 36
-40 48 -21 7 12 73 -53 85 -83 4 -12 7 -86 6 -164 -1 -115 2 -142 13 -142 11
0 13 27 7 163 l-7 162 -38 40 c-57 61 -73 92 -66 125 11 49 -42 86 -86 60z"/>
<path d="M4222 3293 c2 -20 8 -28 23 -28 31 0 28 49 -3 53 -20 3 -23 0 -20
-25z"/>
<path d="M151 3234 c-18 -23 -21 -41 -21 -118 0 -58 4 -96 12 -104 8 -8 59
-12 164 -12 186 0 184 -1 184 126 0 67 -4 86 -21 108 -20 26 -21 26 -159 26
-138 0 -139 0 -159 -26z"/>
<path d="M4240 3206 c-18 -22 -5 -48 22 -44 17 2 23 10 23 28 0 29 -26 38 -45
16z"/>
<path d="M1053 3164 c-3 -8 1 -23 10 -31 13 -13 19 -14 31 -3 9 7 16 21 16 31
0 24 -48 26 -57 3z"/>
<path d="M5089 3153 c-8 -9 -115 -113 -239 -231 -124 -118 -227 -220 -229
-226 -2 -5 19 10 46 34 78 69 437 413 446 427 12 19 -8 16 -24 -4z"/>
<path d="M1138 3065 c4 -107 22 -103 22 6 0 56 -4 79 -12 79 -10 0 -12 -22
-10 -85z"/>
<path d="M3765 3106 c-20 -15 -15 -43 10 -52 18 -7 45 12 45 32 0 22 -35 35
-55 20z"/>
<path d="M3468 3052 c-43 -36 -57 -54 -57 -74 -1 -16 4 -28 9 -28 6 0 10 12
10 28 0 21 12 37 55 71 30 24 55 46 55 47 0 11 -21 -2 -72 -44z"/>
<path d="M0 3070 c0 -11 9 -29 20 -40 15 -15 20 -33 20 -73 0 -41 -5 -58 -20
-72 -13 -12 -20 -31 -20 -54 l0 -36 43 43 42 42 0 76 c0 73 -1 77 -33 105 -38
34 -52 37 -52 9z"/>
<path d="M5105 3067 c-4 -10 -5 -21 -1 -24 10 -10 18 4 13 24 -4 17 -4 17 -12
0z"/>
<path d="M1918 2968 c5 -142 11 -158 95 -230 40 -33 76 -64 82 -69 5 -5 8 -84
7 -187 l-2 -177 166 -169 167 -168 163 -4 c138 -2 164 -1 164 12 0 12 -27 14
-160 14 l-161 0 -147 151 -147 152 -5 161 c-3 88 -5 162 -4 164 0 1 13 -10 27
-24 26 -26 27 -31 27 -136 l0 -110 128 -124 c70 -68 130 -124 134 -124 3 0
-45 51 -109 113 -63 61 -121 124 -129 139 -9 18 -14 61 -14 125 l0 98 -63 65
c-35 36 -93 92 -130 125 l-67 60 0 85 c0 47 -3 102 -6 123 -12 69 -20 37 -16
-65z"/>
<path d="M3741 3017 c-17 -21 -3 -49 23 -45 15 2 21 10 21 28 0 28 -26 38 -44
17z"/>
<path d="M5032 2990 c-47 -44 -7 -125 57 -118 24 3 26 7 29 62 3 62 -4 76 -44
76 -11 0 -30 -9 -42 -20z"/>
<path d="M167 2978 c6 -11 255 -10 271 0 7 5 -53 8 -132 8 -79 -1 -142 -4
-139 -8z"/>
<path d="M945 2823 c-82 -79 -165 -156 -182 -170 -32 -25 -33 -25 -69 -8 -35
16 -37 16 -63 -3 -31 -23 -35 -39 -22 -75 15 -40 58 -53 90 -29 15 11 28 30
31 43 3 14 73 89 175 185 176 166 201 192 194 198 -2 2 -71 -61 -154 -141z"/>
<path d="M4274 2905 c-7 -18 3 -35 21 -35 15 0 24 19 18 38 -6 17 -32 15 -39
-3z"/>
<path d="M3376 2889 c-20 -15 -26 -29 -24 -48 1 -15 -5 -37 -15 -51 -9 -13
-17 -30 -17 -37 0 -21 48 -15 60 7 7 13 21 20 40 20 38 0 60 24 60 65 0 24 -7
39 -22 49 -30 21 -50 20 -82 -5z"/>
<path d="M3197 2822 c-40 -41 -45 -52 -22 -52 19 0 85 58 85 76 0 25 -25 15
-63 -24z"/>
<path d="M4075 2850 c-3 -5 -1 -10 4 -10 6 0 11 5 11 10 0 6 -2 10 -4 10 -3 0
-8 -4 -11 -10z"/>
<path d="M3299 2814 c-19 -20 -92 -90 -162 -156 l-129 -120 -107 7 c-149 9
-142 18 -139 -193 l3 -167 37 -3 c59 -5 68 17 68 175 l0 133 68 0 c82 0 115
19 202 120 65 75 110 99 145 76 13 -8 26 -29 30 -45 4 -20 13 -31 28 -33 17
-2 22 -10 23 -37 2 -39 28 -65 58 -57 13 3 43 -19 105 -79 47 -46 88 -81 91
-78 3 3 -33 40 -80 83 -74 69 -85 82 -82 108 4 33 -19 62 -48 62 -10 0 -22 5
-25 10 -3 6 -17 10 -30 10 -18 0 -25 7 -30 30 -8 35 -31 50 -77 50 l-32 0 64
65 c35 35 62 67 59 70 -3 2 -21 -11 -40 -31z m-479 -444 c0 -67 -4 -110 -10
-110 -6 0 -10 43 -10 110 0 67 4 110 10 110 6 0 10 -43 10 -110z"/>
<path d="M4010 2833 c0 -4 4 -14 9 -22 10 -16 54 -5 48 12 -4 14 -57 23 -57
10z"/>
<path d="M3780 2817 c0 -10 18 -11 83 -5 45 4 89 5 97 3 8 -3 22 0 30 5 10 7
-22 10 -97 10 -86 0 -113 -3 -113 -13z"/>
<path d="M1870 2789 c0 -8 14 -32 30 -53 39 -51 38 -34 0 23 -17 24 -30 38
-30 30z"/>
<path d="M4710 2653 c-80 -74 -150 -145 -157 -157 -8 -14 -12 -71 -13 -162 l0
-142 -36 -32 c-28 -24 -44 -31 -65 -28 -24 4 -40 -8 -116 -84 -79 -80 -91 -88
-125 -88 -27 0 -38 4 -38 15 0 33 -84 6 -114 -37 -12 -17 -16 -49 -16 -137 l0
-115 -80 -82 -80 -82 0 -75 c0 -54 -4 -78 -15 -87 -12 -10 -15 -46 -15 -206 0
-123 -4 -194 -10 -194 -6 0 -10 56 -10 148 0 81 -3 211 -7 289 l-6 142 64 67
64 68 -68 -58 c-37 -32 -69 -68 -72 -80 -2 -11 -6 -152 -8 -313 -3 -219 -7
-296 -17 -307 -10 -13 -40 -16 -176 -16 l-164 0 0 206 0 205 -32 30 c-18 16
-37 29 -43 29 -5 0 5 -13 24 -29 l34 -28 1 -205 2 -205 -25 0 c-50 0 -71 -83
-31 -123 19 -19 33 -20 336 -20 198 0 322 4 335 10 16 9 19 22 19 85 0 98 -8
105 -111 105 l-79 0 0 189 0 189 33 21 c17 11 66 54 107 95 74 76 74 76 75
132 1 30 -2 57 -7 60 -4 3 -8 -21 -8 -53 l0 -58 -82 -79 -83 -78 -3 67 -3 68
86 87 85 87 0 115 c0 112 1 115 28 141 29 27 52 35 52 17 0 -5 -4 -10 -9 -10
-5 0 -17 -7 -25 -16 -13 -13 -16 -44 -16 -188 0 -95 -3 -248 -7 -339 -6 -166
-6 -167 -29 -167 -17 0 -25 -7 -30 -25 -10 -42 6 -135 27 -156 25 -25 83 -25
116 1 14 11 33 20 42 20 24 0 321 -277 333 -311 5 -15 20 -35 33 -43 23 -15
24 -22 28 -143 2 -71 7 -140 12 -156 l7 -27 -36 32 c-34 30 -36 36 -36 90 l0
58 -49 0 c-28 0 -52 -3 -54 -8 -3 -4 15 -5 39 -3 l44 3 0 -51 c0 -45 -3 -52
-28 -65 -18 -9 -44 -12 -75 -9 -41 5 -52 2 -72 -17 -44 -42 -34 -75 42 -146
l67 -62 -36 -40 c-61 -67 -65 -92 -7 -35 l54 52 36 -32 c55 -48 56 -66 9 -112
-42 -41 -49 -55 -27 -55 15 0 80 65 96 97 7 14 17 20 30 16 27 -7 82 28 126
80 41 47 43 64 14 101 -20 25 -20 28 -5 45 52 57 -21 139 -79 88 -36 -31 -28
-54 36 -107 62 -52 63 -76 9 -133 -29 -31 -40 -37 -40 -24 0 10 7 20 15 24 9
3 23 19 31 35 17 34 17 35 -53 109 -40 41 -43 48 -33 73 5 15 10 90 10 167 l0
139 33 0 c18 0 38 5 45 12 9 9 12 -5 12 -66 l0 -78 66 -69 67 -68 -5 -87 -5
-86 -91 -91 c-83 -81 -109 -115 -83 -105 5 2 50 47 100 100 l91 98 0 92 0 92
-62 64 -63 63 -5 80 c-3 45 -2 86 2 92 4 7 8 51 8 98 0 112 -7 119 -118 119
-54 0 -84 -4 -89 -12 -4 -7 -10 -41 -13 -76 l-5 -62 -125 117 c-69 65 -126
125 -128 134 -5 25 -22 37 -62 41 -34 3 -35 4 -38 53 -4 56 -15 75 -46 75 -21
0 -21 1 -24 325 l-4 325 24 1 23 0 -23 10 c-45 17 -19 34 59 37 l74 3 85 83
c72 71 92 85 127 91 31 5 51 16 73 41 l30 35 0 141 0 142 95 89 c52 49 95 95
95 101 1 6 21 34 46 61 l44 50 90 0 c49 0 93 -4 99 -10 7 -7 -24 -10 -92 -9
l-102 2 92 -7 c62 -4 97 -11 110 -22 10 -9 28 -22 41 -28 18 -9 22 -9 22 2 0
8 -13 20 -30 27 -16 7 -27 16 -25 20 3 5 -5 16 -17 24 -16 12 -46 16 -108 16
l-85 -1 -145 -136z"/>
<path d="M4814 2579 l-109 -109 0 -97 c0 -68 -4 -98 -12 -100 -10 -4 -13 20
-13 97 l0 102 72 74 c39 41 69 76 67 79 -3 2 -38 -27 -77 -65 -59 -56 -72 -75
-74 -102 -2 -49 -4 -74 -12 -175 -8 -103 -4 -116 52 -175 l35 -37 -7 -96 -7
-97 -145 -140 c-148 -144 -162 -166 -122 -192 30 -18 63 5 193 132 l125 124 0
147 0 147 -40 39 c-22 21 -40 48 -40 60 1 19 2 18 20 -5 35 -44 65 -71 68 -60
2 5 22 10 44 10 37 0 47 7 129 87 l89 87 0 51 c0 45 4 55 35 85 30 29 47 70
29 70 -3 0 -28 -19 -55 -42 -46 -39 -49 -44 -49 -90 0 -47 -3 -53 -57 -110
-58 -60 -105 -93 -117 -81 -4 4 27 39 69 77 72 68 75 73 75 117 0 44 3 49 70
113 59 57 70 73 70 101 0 32 -13 45 -47 45 -8 0 -47 -31 -87 -68 -39 -37 -92
-85 -118 -106 -40 -31 -48 -43 -47 -69 l1 -32 11 32 c7 18 23 43 36 55 l23 23
-4 -62 c-4 -66 7 -76 17 -15 12 66 15 70 101 147 116 103 133 86 21 -21 -80
-76 -87 -86 -87 -121 0 -34 -7 -46 -68 -106 -79 -78 -105 -86 -100 -29 2 25 8
37 18 37 8 0 15 5 15 10 0 6 -6 9 -12 9 -9 -1 -13 14 -13 50 0 50 1 53 69 120
38 38 73 66 78 63 5 -4 32 16 58 43 44 45 54 50 93 50 30 0 42 4 40 13 -3 8
-34 13 -100 14 l-95 1 -109 -109z m136 69 c0 -7 -45 -55 -100 -107 l-100 -96
0 -56 c0 -33 -6 -63 -15 -75 -13 -17 -14 -12 -15 61 l0 80 102 102 c97 97 128
119 128 91z m-204 -395 c-11 -11 -19 6 -11 24 8 17 8 17 12 0 3 -10 2 -21 -1
-24z"/>
<path d="M3200 2635 c-30 -36 -4 -95 40 -95 39 0 66 70 38 98 -17 17 -63 15
-78 -3z"/>
<path d="M1020 2621 c0 -4 21 -28 48 -53 26 -24 46 -51 44 -59 -4 -23 47 -69
76 -69 19 0 48 22 106 80 44 44 76 83 72 87 -3 4 -38 -24 -76 -62 -38 -38 -72
-66 -76 -62 -4 3 21 35 55 70 83 87 77 96 -8 14 -67 -65 -86 -77 -93 -58 -4
12 -131 121 -140 121 -5 0 -8 -4 -8 -9z"/>
<path d="M2019 2613 c7 -13 10 -84 9 -180 l-2 -158 -5 136 c-6 145 -9 152 -65
191 -27 19 -25 16 12 -25 l42 -47 0 -191 0 -192 63 -62 c34 -33 78 -75 97 -91
19 -17 58 -55 85 -84 34 -36 21 -27 -40 28 -50 46 -92 77 -94 71 -2 -7 50 -66
117 -131 l120 -118 159 2 c207 4 208 22 1 26 l-153 3 -32 31 c-18 17 -30 35
-27 39 6 11 -79 106 -179 200 l-81 75 2 225 c2 215 2 225 -18 249 -18 22 -20
22 -11 3z"/>
<path d="M1462 2604 c-42 -29 -24 -97 30 -109 21 -5 33 -1 52 19 31 31 32 45
5 80 -23 29 -54 33 -87 10z"/>
<path d="M0 2560 c0 -24 15 -27 24 -4 9 22 8 24 -9 24 -8 0 -15 -9 -15 -20z"/>
<path d="M1673 2559 c-6 -6 -9 -18 -6 -25 6 -16 33 -19 33 -4 0 6 -7 10 -16
10 -8 0 -12 5 -9 10 4 6 11 8 16 5 5 -4 9 -1 9 4 0 14 -13 14 -27 0z"/>
<path d="M1782 2554 c-15 -10 -22 -25 -22 -46 0 -29 -2 -30 -30 -24 -26 5 -32
2 -40 -19 -11 -29 -46 -40 -95 -31 -29 6 -39 3 -60 -19 l-26 -25 -188 0 -187
0 -30 -32 -29 -33 30 25 c30 25 31 26 225 25 l195 0 5 -52 c5 -50 10 -56 93
-141 l87 -89 0 -77 c0 -59 -3 -78 -15 -82 -8 -4 -15 -13 -15 -21 0 -8 7 -21
15 -29 20 -20 19 -32 -5 -71 -18 -31 -23 -33 -74 -33 -66 0 -86 -7 -86 -29 0
-14 10 -16 69 -13 66 4 70 3 87 -23 14 -22 15 -31 6 -46 -17 -27 -15 -53 6
-72 24 -22 45 -21 66 2 22 24 14 55 -20 77 l-24 16 20 25 c14 18 20 41 20 74
l0 49 48 0 c26 0 53 -5 59 -11 16 -16 43 -3 43 21 0 21 -33 29 -45 10 -3 -5
-28 -10 -56 -10 l-49 0 0 103 c-1 153 -6 166 -99 262 -69 71 -81 87 -81 117 0
45 15 58 67 58 l43 0 0 -49 c0 -47 4 -54 56 -110 l56 -61 77 2 76 2 -71 3 -72
4 -51 54 c-48 51 -51 57 -51 108 0 45 4 57 28 80 20 19 39 27 65 27 41 0 77
28 77 60 0 25 -34 60 -58 60 -10 0 -28 -7 -40 -16z"/>
<path d="M2686 2535 c-13 -14 -16 -41 -16 -151 0 -83 -4 -134 -10 -134 -6 0
-10 51 -10 133 0 72 -4 138 -9 145 -5 8 -17 12 -27 10 -17 -3 -18 -13 -15
-158 3 -169 10 -190 61 -190 14 0 31 -5 37 -11 27 -27 33 4 33 175 0 136 -3
176 -14 185 -11 9 -18 8 -30 -4z"/>
<path d="M165 2533 c81 -2 142 -8 146 -14 7 -12 59 -1 59 12 0 5 -77 8 -172 7
l-173 -2 140 -3z"/>
<path d="M554 2505 c-4 -9 -2 -21 3 -26 14 -14 45 1 41 20 -4 22 -37 26 -44 6z"/>
<path d="M732 2468 c-32 -33 -33 -33 -146 -36 -105 -3 -116 -5 -137 -28 -22
-24 -23 -24 -236 -24 -206 0 -213 -1 -213 -20 0 -13 7 -20 20 -20 11 0 20 -5
20 -11 0 -6 -9 -9 -20 -6 -17 4 -20 0 -20 -32 0 -25 7 -44 20 -56 l20 -18 -20
-22 c-11 -12 -20 -34 -20 -50 l0 -29 38 37 38 37 29 -29 c27 -30 28 -31 21
-113 l-7 -83 30 35 c26 30 30 43 31 93 0 58 0 59 -62 123 -73 77 -66 84 15 13
l57 -51 0 -78 0 -79 -62 -53 c-119 -103 -133 -116 -125 -124 4 -4 32 17 62 46
30 30 55 50 55 44 0 -5 -27 -36 -60 -69 -57 -56 -60 -62 -60 -108 l0 -48 61
66 c49 51 64 63 75 54 11 -9 -1 -25 -61 -81 l-75 -70 0 -71 0 -72 83 83 82 82
78 0 77 0 67 -64 67 -64 4 -106 4 -106 -31 -35 c-38 -43 -45 -71 -37 -135 6
-44 4 -52 -24 -83 -30 -35 -40 -82 -18 -89 7 -3 8 -7 2 -10 -5 -4 -34 21 -64
55 l-54 60 43 -7 c32 -5 50 -2 67 9 24 15 24 18 24 183 l0 168 -28 27 c-26 25
-34 27 -115 27 -68 0 -89 -3 -99 -17 -7 -9 -39 -41 -70 -71 -32 -30 -58 -62
-58 -71 0 -9 34 18 79 63 78 77 80 79 120 73 27 -3 55 -17 85 -44 38 -32 45
-44 46 -73 0 -20 5 -41 12 -48 9 -9 -1 -12 -48 -12 -84 0 -94 -13 -94 -118 l0
-81 46 -43 c25 -24 55 -56 66 -71 l20 -28 -66 -70 -66 -69 0 -147 0 -146 99
-101 c88 -91 110 -126 79 -126 -6 0 -37 25 -69 55 -51 49 -79 66 -79 50 0 -3
29 -33 65 -67 53 -49 63 -63 53 -75 -9 -12 -21 -5 -67 41 -52 52 -81 69 -81
47 0 -4 24 -31 54 -59 38 -36 50 -54 43 -61 -19 -19 -33 -13 -86 35 -28 25
-51 43 -51 39 0 -12 91 -115 101 -115 5 0 23 10 38 21 44 33 56 18 18 -21 -85
-88 -125 -120 -141 -114 -14 5 -16 -2 -16 -50 0 -49 2 -56 20 -56 17 0 20 7
20 38 0 38 23 72 47 72 6 0 22 15 36 33 14 19 59 66 99 105 77 75 85 89 28 47
-48 -35 -57 -31 -21 10 17 20 31 41 31 48 0 7 -45 57 -100 112 l-100 100 0
140 0 140 92 92 c78 78 91 96 82 110 -9 14 -1 26 48 71 l58 54 0 200 c0 210
-4 231 -49 272 l-20 19 24 19 c28 22 33 62 11 91 -9 12 -12 32 -8 59 4 32 1
44 -13 54 -17 13 -17 15 -2 32 30 33 16 82 -23 82 -8 0 -69 -54 -135 -120
-105 -106 -145 -137 -145 -113 0 3 50 57 110 119 l110 112 0 107 c0 58 -4 115
-10 125 -5 10 -33 36 -61 59 l-52 41 91 0 c82 0 93 2 120 25 28 24 37 25 145
25 115 0 116 0 145 -30 42 -41 92 -41 133 -1 37 37 38 79 3 120 -21 26 -33 31
-68 31 -33 0 -48 -6 -74 -32z m115 -10 c60 -57 -15 -149 -80 -97 -33 25 -35
64 -5 96 27 29 55 29 85 1z m-621 -134 c-4 -10 5 -29 24 -50 30 -34 30 -36 30
-152 0 -127 -1 -130 -72 -192 -42 -36 -33 -5 12 44 l40 43 0 108 0 108 -50 46
c-27 25 -50 49 -50 54 0 4 16 7 36 7 29 0 35 -3 30 -16z m164 -459 c10 -12 2
-24 -46 -70 -57 -53 -83 -64 -91 -38 -5 15 94 123 112 123 7 0 18 -7 25 -15z
m70 -605 c0 -5 -7 -10 -15 -10 -8 0 -15 5 -15 10 0 6 7 10 15 10 8 0 15 -4 15
-10z m-146 -23 c36 -26 -4 -84 -41 -61 -25 16 -28 45 -7 61 10 7 21 13 24 13
3 0 14 -6 24 -13z m156 -52 c0 -8 -7 -15 -15 -15 -16 0 -20 12 -8 23 11 12 23
8 23 -8z"/>
<path d="M2425 2411 c-8 -15 3 -31 21 -31 9 0 14 7 12 17 -4 20 -24 28 -33 14z"/>
<path d="M3011 2347 c-19 -19 -13 -65 10 -78 31 -16 69 3 69 35 0 21 5 24 52
28 l52 5 118 -111 118 -111 0 -75 0 -76 -58 -57 -58 -57 -132 0 -133 0 -49 46
c-28 26 -50 55 -50 65 0 10 -8 22 -17 27 -47 24 -158 22 -150 -2 4 -12 9 -13
90 -15 40 -1 57 -5 57 -14 0 -8 27 -39 59 -70 l59 -56 130 1 c74 0 138 6 149
12 11 6 44 36 72 67 l51 57 0 75 0 75 -42 37 c-24 21 -79 72 -123 115 l-80 77
-91 6 c-62 4 -95 2 -103 -6z"/>
<path d="M3366 2314 c-30 -30 -13 -74 29 -74 43 0 59 44 27 73 -23 21 -36 21
-56 1z"/>
<path d="M3550 2295 c0 -22 4 -26 23 -23 14 2 22 10 22 23 0 13 -8 21 -22 23
-19 3 -23 -1 -23 -23z"/>
<path d="M750 2281 c0 -24 13 -33 35 -25 23 9 14 38 -13 42 -16 3 -22 -2 -22
-17z"/>
<path d="M630 2274 c-11 -12 -11 -18 1 -30 13 -12 18 -12 34 0 16 12 17 16 6
30 -17 20 -25 20 -41 0z"/>
<path d="M2260 2105 c90 -90 161 -167 157 -171 -4 -4 -74 57 -157 136 -83 78
-154 140 -157 136 -3 -3 -4 -7 -2 -8 2 -2 72 -69 155 -150 l151 -148 51 0 c29
0 52 5 52 10 0 6 15 10 34 10 69 0 44 18 -34 25 l-81 7 -156 159 c-86 87 -161
159 -167 159 -6 0 63 -74 154 -165z"/>
<path d="M571 2206 c-15 -18 -3 -46 20 -46 25 0 35 26 19 45 -15 19 -24 19
-39 1z"/>
<path d="M675 2207 c-10 -8 -16 -23 -13 -38 2 -19 9 -24 33 -24 25 0 31 4 33
27 4 34 -26 54 -53 35z"/>
<path d="M5002 2107 c-56 -56 -102 -110 -102 -119 0 -9 11 -25 24 -35 l25 -18
-57 -60 c-31 -33 7 3 86 80 l142 140 0 57 c0 32 -3 58 -8 58 -4 0 -53 -46
-110 -103z"/>
<path d="M2100 2145 c0 -4 62 -71 137 -147 l137 -138 196 0 195 0 125 -125
c69 -69 132 -125 140 -125 14 0 48 30 64 58 11 19 -12 42 -42 42 -23 0 -24 -3
-19 -35 4 -24 2 -35 -6 -35 -7 0 -66 54 -132 120 l-120 120 -199 0 -199 0
-139 137 c-76 75 -138 133 -138 128z"/>
<path d="M850 2115 c-19 -23 -8 -50 22 -53 19 -2 28 2 33 18 12 39 -29 66 -55
35z"/>
<path d="M1080 2111 c0 -26 17 -36 35 -21 18 15 8 40 -16 40 -12 0 -19 -7 -19
-19z"/>
<path d="M653 2085 c-1 -47 18 -62 61 -47 18 7 55 12 82 13 36 0 44 3 29 9
-11 5 -36 9 -55 9 -23 1 -45 10 -62 26 -38 35 -54 32 -55 -10z"/>
<path d="M2700 2112 c0 -9 32 -22 58 -22 6 0 12 5 12 11 0 6 -8 9 -19 6 -10
-2 -26 0 -35 5 -10 5 -16 5 -16 0z"/>
<path d="M1459 2087 c-47 -31 -67 -93 -47 -145 29 -78 135 -108 197 -57 122
103 -17 291 -150 202z m109 -105 c-5 -24 -52 -23 -56 2 -2 10 2 22 9 27 18 11
51 -9 47 -29z"/>
<path d="M2798 2103 c7 -3 16 -2 19 1 4 3 -2 6 -13 5 -11 0 -14 -3 -6 -6z"/>
<path d="M3520 2081 c0 -20 32 -37 50 -26 5 3 10 15 10 26 0 14 -7 19 -30 19
-23 0 -30 -5 -30 -19z"/>
<path d="M942 1999 c-53 -52 -152 -148 -219 -214 l-123 -120 0 -171 c0 -156
-2 -174 -20 -197 -14 -18 -20 -40 -20 -79 0 -51 2 -56 61 -121 l61 -67 -75 0
c-72 0 -75 1 -119 40 -56 48 -72 40 -22 -11 21 -21 33 -42 29 -49 -5 -8 -13
-6 -26 6 -19 17 -22 16 -80 -42 -95 -93 -99 -105 -99 -293 0 -88 3 -162 8
-164 4 -3 6 52 4 121 -2 70 -1 141 3 159 6 33 61 101 72 89 4 -3 -8 -21 -25
-39 l-32 -33 0 -141 0 -141 125 -118 c128 -120 151 -154 95 -146 -25 4 -30 1
-30 -17 0 -29 29 -39 46 -16 13 17 14 14 14 -26 0 -38 -5 -50 -35 -79 -30 -29
-35 -40 -35 -82 0 -26 5 -48 10 -48 6 0 10 17 10 38 0 26 7 45 20 57 20 18 20
17 20 -38 0 -32 5 -57 10 -57 6 0 10 30 10 69 l0 68 40 27 c39 26 46 40 53
106 2 22 4 13 5 -24 2 -55 0 -60 -35 -95 -32 -31 -37 -43 -41 -93 -4 -54 -3
-58 17 -58 16 0 21 6 21 26 0 17 17 43 50 78 l50 53 0 102 0 101 41 -6 42 -7
83 88 84 88 0 136 0 137 -33 32 c-24 23 -38 30 -55 26 -27 -8 -29 7 -4 29 17
16 21 14 66 -26 l48 -42 4 -146 4 -147 -71 -78 c-81 -89 -105 -122 -95 -131 3
-4 51 38 106 93 l100 100 0 148 c0 107 -4 154 -14 174 -8 15 -55 67 -105 115
l-90 87 -75 0 -75 0 -65 75 c-59 68 -66 80 -66 119 0 30 6 48 20 61 19 17 20
31 20 189 l0 171 138 135 c239 236 251 245 264 232 7 -7 22 -12 35 -12 13 0
23 -3 23 -7 0 -4 -81 -89 -180 -189 l-180 -181 0 -177 c0 -169 -1 -176 -20
-176 -29 0 -60 -36 -60 -70 0 -65 79 -94 119 -44 12 15 21 33 21 40 0 7 8 15
19 19 10 3 27 15 37 26 16 18 19 38 19 140 l0 118 40 41 c22 23 79 77 126 121
l87 79 0 -67 c0 -91 14 -103 126 -103 50 0 87 5 94 12 8 8 12 45 12 101 0 88
0 89 -34 123 -29 29 -41 34 -80 34 -25 0 -55 -5 -68 -12 -13 -7 -90 -81 -173
-165 l-150 -154 -3 -122 c-3 -93 -7 -126 -19 -139 -9 -10 -21 -18 -26 -18 -6
0 -3 8 6 18 12 13 16 47 19 151 l3 134 120 113 c66 63 119 118 118 123 -3 10
19 30 50 46 29 14 35 45 10 45 -23 0 -43 -18 -43 -40 0 -8 -61 -76 -135 -150
l-135 -135 0 -132 c0 -124 -1 -133 -21 -144 -41 -21 -46 1 -40 187 l6 172 205
206 c113 113 205 212 205 219 0 6 -9 11 -20 10 -11 -1 -35 8 -53 19 l-33 20
-97 -93z m98 46 c0 -8 -7 -15 -15 -15 -16 0 -20 12 -8 23 11 12 23 8 23 -8z
m-300 -815 c14 -27 -7 -74 -36 -78 -25 -4 -54 22 -54 48 0 45 69 68 90 30z
m-13 -247 c-21 -2 -40 -10 -43 -16 -6 -17 -146 -7 -152 11 -3 9 24 12 115 10
65 -1 101 -3 80 -5z m117 -24 c26 -30 33 -49 19 -49 -5 1 -28 19 -52 40 -41
38 -42 40 -18 40 16 0 35 -11 51 -31z m-329 -29 c3 -5 26 -10 51 -10 l44 0 0
-130 c0 -80 4 -130 10 -130 6 0 10 50 10 130 l0 130 25 0 c14 0 25 5 25 10 0
6 21 10 48 10 55 0 77 -15 146 -102 l46 -58 0 -102 c0 -80 -3 -105 -17 -120
-22 -25 -40 -23 -56 7 l-13 26 -24 -28 c-14 -15 -17 -21 -7 -14 26 20 28 10 7
-37 l-19 -42 -98 0 -99 0 -57 58 c-53 54 -57 61 -57 106 0 36 5 52 21 64 26
22 16 54 -15 50 -19 -3 -21 -10 -23 -88 l-1 -85 67 -67 68 -68 82 0 c45 0 91
-5 102 -10 27 -15 53 2 83 53 14 24 37 53 51 65 24 21 25 27 25 127 0 60 4
105 10 105 15 0 21 -58 17 -148 l-4 -84 -75 -74 -74 -75 -49 11 c-39 9 -51 8
-63 -3 -11 -11 -20 -12 -42 -4 -24 9 -32 8 -48 -6 -10 -9 -34 -17 -53 -17 -29
0 -46 12 -121 87 l-88 88 0 117 0 118 38 42 c20 24 40 45 44 48 4 3 11 18 17
33 8 19 18 27 35 27 14 0 28 -4 31 -10z m225 -535 c0 -8 -7 -15 -15 -15 -26 0
-18 20 13 29 1 1 2 -6 2 -14z m-117 -117 c-4 -49 -11 -79 -22 -90 -15 -16 -16
-13 -17 50 0 37 -4 77 -8 90 -7 20 -5 22 21 22 l30 0 -4 -72z"/>
<path d="M723 919 c-28 -10 -30 -39 -3 -39 31 0 35 1 32 11 -1 6 7 5 18 -1 18
-10 20 -21 20 -117 l0 -105 -60 -65 c-33 -35 -60 -71 -59 -81 0 -13 4 -11 17
8 9 14 38 48 64 76 l48 51 0 104 1 104 40 -44 c21 -24 43 -41 46 -37 7 7 -98
118 -127 135 -8 5 -25 5 -37 0z"/>
<path d="M872 596 c-23 -12 -23 -14 -7 -30 16 -16 18 -16 31 1 15 20 18 43 7
43 -5 -1 -19 -7 -31 -14z"/>
<path d="M732 518 c-19 -19 -14 -30 10 -26 13 2 24 11 26 21 4 20 -18 23 -36
5z"/>
<path d="M1875 2070 c10 -11 20 -20 23 -20 3 0 -3 9 -13 20 -10 11 -20 20 -23
20 -3 0 3 -9 13 -20z"/>
<path d="M1928 2035 c-35 -20 -54 -76 -38 -114 20 -49 93 -67 139 -35 22 16
24 15 57 -17 19 -18 34 -35 34 -38 0 -4 -40 -6 -90 -6 l-90 0 -67 -70 c-38
-38 -48 -51 -23 -29 93 84 93 84 199 84 l96 0 89 -85 88 -85 138 0 137 0 47
-41 c61 -54 69 -44 12 15 l-45 46 -142 0 -141 0 -54 53 c-35 33 -51 56 -46 64
5 9 25 -4 65 -42 l57 -55 103 1 c56 0 111 4 122 9 13 5 -23 9 -98 9 l-118 1
-58 55 c-32 30 -64 55 -70 55 -7 0 -46 32 -85 70 -40 39 -81 70 -92 71 -10 0
-14 3 -7 5 23 10 -7 65 -43 80 -40 17 -42 17 -76 -1z m31 -54 c9 -6 21 -5 32
2 25 16 42 -3 34 -36 -5 -19 -13 -26 -29 -25 -11 0 -29 -3 -38 -7 -13 -5 -21
0 -29 18 -12 25 -7 57 8 57 4 0 14 -4 22 -9z"/>
<path d="M3750 1967 c-31 -46 -32 -51 -4 -27 16 14 31 26 33 28 3 1 0 7 -5 12
-6 6 -15 1 -24 -13z"/>
<path d="M1817 1963 c-13 -13 -7 -21 13 -16 11 3 20 0 20 -6 0 -6 5 -11 10
-11 7 0 7 6 0 20 -11 20 -31 26 -43 13z"/>
<path d="M3518 1939 c-19 -11 -24 -54 -9 -77 14 -23 64 -10 80 20 14 24 14 28
-3 47 -21 23 -41 26 -68 10z"/>
<path d="M4307 1932 c-13 -14 -17 -37 -17 -100 0 -72 -2 -81 -20 -87 -55 -18
-80 -115 -40 -155 31 -31 113 -28 145 5 35 34 35 96 0 130 -13 14 -29 25 -35
25 -7 0 -10 26 -8 76 l3 76 40 14 c22 7 73 14 113 14 117 0 75 16 -50 19 -101
2 -116 0 -131 -17z m58 -217 c52 -51 15 -135 -60 -135 -25 0 -44 8 -60 25 -33
33 -32 70 4 106 38 37 82 39 116 4z"/>
<path d="M4262 1688 c-7 -7 -12 -24 -12 -38 0 -31 17 -50 45 -50 28 0 45 19
45 50 0 31 -17 50 -45 50 -12 0 -26 -5 -33 -12z m58 -13 c7 -8 10 -25 6 -40
-11 -44 -66 -26 -66 21 0 33 38 45 60 19z"/>
<path d="M4926 1763 c-99 -98 -184 -182 -188 -188 -14 -18 -8 -44 11 -54 16
-9 35 6 130 100 62 61 110 114 106 117 -3 3 -55 -43 -115 -103 -90 -89 -110
-106 -116 -91 -5 14 35 60 182 207 104 104 185 189 180 189 -5 0 -91 -80 -190
-177z"/>
<path d="M3998 1914 c-5 -4 -8 -51 -8 -105 l0 -97 -39 -49 c-21 -26 -57 -66
-80 -88 l-41 -39 0 -89 c0 -56 4 -86 10 -82 6 3 10 42 10 86 l0 79 78 81 77
81 3 87 c4 98 0 146 -10 135z"/>
<path d="M1634 1889 c-9 -15 11 -33 30 -26 9 4 13 13 10 22 -7 17 -30 20 -40
4z"/>
<path d="M4170 1881 c-15 -29 -13 -231 3 -231 9 0 12 32 12 125 0 69 -1 125
-2 125 -1 0 -7 -9 -13 -19z"/>
<path d="M1393 1863 c-15 -6 -17 -69 -3 -78 6 -3 10 -49 10 -102 l0 -96 43
-41 c23 -22 84 -85 136 -139 52 -53 96 -95 99 -92 5 5 -220 242 -245 258 -20
13 -18 203 2 211 18 7 20 57 3 74 -13 13 -24 14 -45 5z"/>
<path d="M4968 1691 c-81 -83 -155 -165 -164 -182 -15 -30 -15 -33 4 -51 12
-13 26 -18 38 -14 11 4 77 62 147 129 l128 122 -3 73 -3 74 -147 -151z"/>
<path d="M4791 1790 c0 -8 -76 -90 -168 -182 l-168 -167 -110 -4 -110 -3 114
-2 115 -2 169 168 c128 128 168 173 164 188 -3 12 -5 13 -6 4z"/>
<path d="M3675 1678 l-70 -73 73 70 c39 38 72 71 72 72 0 8 -11 -2 -75 -69z"/>
<path d="M2381 1736 c2 -3 57 -6 122 -7 103 -2 115 -4 104 -17 -10 -13 -9 -14
10 -4 37 20 57 14 103 -33 45 -46 60 -54 60 -32 -1 6 -26 31 -56 53 l-54 41
-147 2 c-81 1 -145 0 -142 -3z"/>
<path d="M1567 1713 c-4 -3 -7 -19 -7 -34 0 -22 6 -30 26 -35 38 -10 61 17 46
51 -11 24 -49 35 -65 18z"/>
<path d="M86 1595 c-50 -46 -87 -88 -83 -92 4 -4 35 20 68 53 38 36 63 54 66
47 8 -21 28 -15 51 17 24 32 66 41 76 15 4 -11 -2 -15 -25 -15 -21 0 -40 -10
-62 -31 -29 -30 -31 -30 -45 -13 -13 18 -13 17 -10 -6 2 -20 -8 -34 -54 -72
-60 -50 -73 -66 -65 -75 3 -3 37 24 76 59 114 103 131 113 174 110 31 -3 50
-14 94 -57 l55 -53 -4 -68 c-2 -38 -8 -78 -13 -88 -7 -17 -4 -16 23 4 31 23
32 25 32 105 l0 80 -83 83 c-81 81 -83 82 -132 82 -49 0 -52 -2 -139 -85z m99
44 c-20 -18 -39 -28 -43 -24 -9 9 44 55 64 55 9 0 0 -13 -21 -31z"/>
<path d="M5020 1550 c-52 -57 -130 -140 -172 -186 l-78 -83 0 -89 c0 -71 -3
-91 -15 -96 -8 -3 -15 -15 -15 -26 0 -25 35 -27 49 -2 8 14 12 15 22 5 9 -9
45 -13 107 -13 l93 0 55 54 c37 38 54 63 54 80 0 17 -5 26 -16 26 -12 0 -15
-6 -10 -24 5 -19 -4 -33 -49 -75 l-54 -51 -76 0 c-71 0 -79 2 -106 29 -26 26
-29 36 -28 88 0 32 3 65 7 74 7 17 129 152 261 291 40 42 71 82 69 89 -2 6
-46 -35 -98 -91z"/>
<path d="M2127 1595 c-20 -19 -12 -45 14 -45 26 0 36 28 17 46 -13 14 -17 14
-31 -1z"/>
<path d="M1032 1578 c-7 -7 -12 -19 -12 -29 0 -9 -25 -39 -55 -67 l-55 -51 0
-86 c0 -47 3 -85 8 -85 4 0 6 34 4 76 l-4 76 52 53 c29 30 59 70 65 89 14 40
14 41 -3 24z"/>
<path d="M2730 1565 c0 -18 24 -30 40 -20 8 5 8 11 -1 21 -15 19 -39 18 -39
-1z"/>
<path d="M3334 1528 c-30 -28 -52 -53 -49 -56 3 -3 29 18 59 46 30 29 62 52
70 52 8 0 38 -20 66 -45 31 -27 60 -45 75 -45 24 0 25 -3 25 -57 0 -39 -5 -62
-17 -75 -16 -17 -16 -20 0 -35 15 -15 19 -15 30 -3 10 11 12 38 9 98 l-4 82
-29 0 c-22 0 -44 13 -78 45 -65 60 -87 60 -157 -7z"/>
<path d="M5066 1524 c-27 -25 -46 -48 -42 -51 4 -4 28 14 53 40 61 60 53 68
-11 11z"/>
<path d="M2845 1505 c45 -75 56 -84 20 -17 -16 29 -34 57 -42 63 -7 6 3 -14
22 -46z"/>
<path d="M4140 1554 c0 -5 17 -27 38 -47 l38 -37 120 0 c113 0 122 1 140 23
19 22 19 22 -2 5 -17 -15 -41 -18 -134 -18 l-114 0 -43 42 c-24 23 -43 38 -43
32z"/>
<path d="M1365 1522 c-16 -11 -56 -47 -88 -82 -32 -34 -60 -60 -63 -57 -3 3
11 23 30 45 34 37 45 62 29 62 -4 0 -27 -19 -50 -42 -29 -28 -43 -51 -43 -68
0 -18 -18 -43 -60 -85 -56 -56 -64 -60 -106 -60 -38 -1 -51 -6 -70 -28 -47
-55 -14 -137 56 -137 47 0 93 49 88 94 -3 32 5 41 154 180 146 136 181 161
190 137 2 -6 51 -59 111 -120 59 -60 107 -116 107 -123 0 -7 -42 -54 -93 -105
-79 -77 -92 -94 -80 -105 11 -12 29 1 112 82 55 52 102 105 106 118 5 19 -12
41 -111 145 -180 188 -168 180 -219 149z"/>
<path d="M3242 1523 c4 -21 33 -25 33 -3 0 8 -8 16 -18 18 -14 3 -18 -1 -15
-15z"/>
<path d="M1892 1504 c-30 -21 -29 -59 3 -80 23 -15 27 -15 50 0 32 21 33 59 3
80 -12 9 -25 16 -28 16 -3 0 -16 -7 -28 -16z"/>
<path d="M5070 1475 c-24 -25 -42 -47 -39 -50 3 -2 25 15 49 40 24 25 42 47
39 50 -3 2 -25 -15 -49 -40z"/>
<path d="M4561 1372 c-104 -100 -142 -142 -140 -156 2 -11 9 -21 14 -23 6 -1
73 65 149 147 96 103 143 147 150 140 7 -7 -3 -24 -32 -53 -39 -39 -42 -47
-42 -96 0 -46 -2 -52 -17 -47 -12 5 -34 -10 -75 -51 -62 -61 -67 -73 -42 -93
13 -11 24 -5 75 46 l59 58 1 -79 c2 -138 2 -140 24 -140 26 0 34 42 10 51 -15
6 -16 21 -14 110 2 56 0 106 -4 110 -4 4 -7 22 -7 40 0 26 10 43 45 77 57 56
58 86 5 94 -8 1 -80 -60 -159 -135z"/>
<path d="M98 1383 c-54 -53 -98 -100 -98 -105 0 -11 145 122 185 170 52 63 9
31 -87 -65z"/>
<path d="M1722 1458 c-19 -19 -14 -46 13 -64 24 -16 27 -16 45 1 34 31 19 75
-25 75 -12 0 -26 -5 -33 -12z"/>
<path d="M5079 1374 c-30 -32 -38 -34 -69 -28 -57 12 -80 7 -112 -22 -64 -62
-71 -115 -22 -174 85 -100 250 22 189 140 l-17 32 38 39 c21 21 35 41 33 44
-3 2 -21 -11 -40 -31z m-46 -74 c16 -18 27 -42 27 -59 0 -38 -54 -111 -83
-112 -47 -3 -63 3 -84 29 -29 34 -29 81 -1 117 18 24 26 27 61 22 47 -6 66
-23 77 -68 7 -31 8 -31 9 -7 1 32 -41 85 -71 90 -12 2 -24 9 -26 17 -9 26 61
3 91 -29z"/>
<path d="M4926 1254 c-9 -8 -16 -22 -16 -29 0 -19 28 -45 49 -45 40 0 57 61
22 80 -27 14 -37 13 -55 -6z"/>
<path d="M1085 1350 c-38 -40 -23 -52 16 -13 17 17 27 33 22 36 -6 4 -23 -7
-38 -23z"/>
<path d="M1375 1347 c-96 -66 -138 -133 -119 -190 7 -22 8 -22 14 3 7 29 43
35 48 7 2 -12 -35 -54 -112 -129 -64 -61 -116 -116 -116 -122 0 -6 45 34 99
88 l99 99 33 -26 c19 -14 45 -28 59 -32 59 -14 160 67 160 129 0 23 -15 44
-68 98 -41 40 -65 71 -59 77 19 19 -10 18 -38 -2z"/>
<path d="M3129 1321 c-37 -38 -39 -82 -4 -116 13 -14 29 -25 35 -25 5 0 10 -8
10 -17 0 -9 17 -34 38 -56 l37 -38 5 -153 c4 -112 9 -158 19 -170 21 -25 66
-46 99 -46 34 0 42 -14 42 -73 0 -73 3 -72 -199 -69 l-180 3 -46 -48 -45 -48
0 -133 0 -133 30 -10 c17 -7 30 -18 30 -28 0 -9 27 -43 60 -76 33 -33 60 -65
60 -72 0 -7 7 -13 15 -13 30 0 14 33 -40 82 -62 57 -80 82 -68 101 4 6 6 75 5
152 -2 77 1 146 6 153 6 9 56 13 186 15 l178 2 24 28 c21 24 24 38 24 101 0
83 -15 106 -67 106 -17 0 -42 9 -57 21 -26 20 -26 22 -26 154 0 74 -4 145 -10
159 -5 14 -26 43 -46 65 -20 23 -31 41 -25 41 26 0 61 49 61 85 0 80 -92 114
-151 56z"/>
<path d="M2975 1300 c10 -11 20 -20 23 -20 3 0 -3 9 -13 20 -10 11 -20 20 -23
20 -3 0 3 -9 13 -20z"/>
<path d="M2920 1215 c0 -8 7 -15 15 -15 8 0 15 7 15 15 0 8 -7 15 -15 15 -8 0
-15 -7 -15 -15z"/>
<path d="M1749 1200 c-41 -5 -57 -16 -138 -89 -81 -75 -103 -101 -85 -101 3 0
42 33 85 74 78 72 105 86 169 86 16 0 42 -11 59 -26 26 -22 29 -28 18 -45 -10
-16 -9 -21 3 -29 8 -5 19 -9 23 -7 4 1 102 -92 217 -208 l210 -210 175 3 c165
4 177 2 210 -18 40 -25 55 -74 36 -125 -6 -17 -11 -89 -11 -161 l0 -130 -56
-54 c-30 -30 -62 -67 -69 -81 -13 -24 -12 -28 14 -53 37 -35 52 -33 17 3 -34
35 -31 43 53 126 l61 59 0 119 c0 104 3 122 20 144 14 18 20 41 20 75 0 61
-10 81 -62 118 l-41 30 -181 0 -181 1 -208 204 c-115 113 -201 202 -193 199
35 -13 14 26 -31 58 -57 41 -73 45 -134 38z"/>
<path d="M1884 1199 c-10 -17 13 -36 27 -22 12 12 4 33 -11 33 -5 0 -12 -5
-16 -11z"/>
<path d="M4313 1119 c11 -6 32 -9 48 -5 18 3 34 0 43 -10 11 -11 30 -14 63
-11 l48 3 -48 2 c-32 1 -50 7 -53 17 -5 11 -21 15 -63 15 -45 -1 -52 -3 -38
-11z"/>
<path d="M1695 1101 c-17 -10 -65 -57 -108 -104 l-79 -87 -92 0 -92 0 -92 -94
c-92 -93 -92 -93 -92 -144 0 -34 -7 -63 -20 -84 -15 -26 -18 -43 -13 -88 5
-51 3 -59 -23 -90 l-28 -35 32 29 c30 28 32 34 32 102 0 51 4 75 15 84 10 8
15 30 15 64 l0 52 95 93 95 93 83 -7 84 -7 38 36 c21 20 45 36 53 36 9 0 29
12 44 27 l29 27 24 -29 c13 -17 24 -37 25 -46 0 -19 31 -49 49 -49 7 0 24 -9
38 -19 13 -11 30 -18 37 -15 7 3 42 -26 78 -65 60 -65 88 -85 88 -62 0 5 -57
65 -126 135 -84 83 -134 126 -148 126 -12 0 -29 9 -38 20 -16 18 -16 20 5 35
12 8 25 15 28 15 4 0 189 -181 411 -401 222 -221 392 -395 378 -386 -17 11
-30 13 -40 7 -8 -5 -49 -10 -92 -10 l-76 0 -77 83 c-91 97 -104 117 -77 117
10 0 27 7 38 14 18 14 17 17 -27 62 -47 47 -76 48 -39 1 18 -22 18 -26 4 -31
-11 -4 -14 -13 -11 -27 5 -18 2 -20 -21 -14 -26 6 -45 21 -128 98 l-40 37 -38
-32 c-25 -22 -35 -38 -31 -49 11 -29 203 -200 211 -187 5 7 -29 47 -90 106
-95 91 -97 94 -80 113 17 19 19 18 90 -52 46 -45 78 -70 87 -66 9 3 30 -10 53
-34 21 -21 43 -39 49 -39 6 0 35 -25 65 -55 l54 -55 88 0 c81 0 88 -2 88 -20
0 -23 32 -43 55 -34 24 10 37 41 26 62 -5 9 -88 95 -184 190 -137 137 -173
178 -170 195 3 18 -42 68 -219 244 -123 121 -232 224 -243 227 -11 3 -33 -2
-50 -13z m60 -14 c35 -21 448 -447 441 -454 -4 -4 -107 93 -229 215 -122 122
-229 222 -236 222 -8 0 -42 -24 -75 -52 l-61 -53 44 53 c40 48 78 83 91 82 3
-1 14 -6 25 -13z m765 -857 c0 -5 -4 -10 -10 -10 -5 0 -10 5 -10 10 0 6 5 10
10 10 6 0 10 -4 10 -10z"/>
<path d="M1804 795 c164 -179 249 -265 257 -259 5 2 -50 64 -120 137 -71 73
-141 147 -156 164 -15 18 -41 43 -58 55 -18 12 17 -32 77 -97z"/>
<path d="M1582 835 l-39 -34 -144 -4 -144 -3 151 -2 150 -2 28 29 c52 54 58
52 191 -79 67 -66 125 -120 130 -120 5 0 -46 56 -115 125 -86 86 -132 125
-147 125 -13 0 -40 -16 -61 -35z"/>
<path d="M3105 849 c-5 -15 -2 -26 9 -34 20 -15 22 -97 3 -113 -7 -6 -44 -13
-82 -15 l-70 -3 82 -2 c98 -2 99 -1 104 108 4 71 3 75 -18 78 -15 2 -23 -4
-28 -19z"/>
<path d="M2750 825 c-18 -19 -35 -25 -69 -27 l-46 -1 39 -4 c44 -5 76 8 94 38
17 26 10 24 -18 -6z"/>
<path d="M4415 840 c-8 -14 3 -30 21 -30 8 0 14 9 14 20 0 21 -24 28 -35 10z"/>
<path d="M3026 827 c-28 -21 -12 -59 22 -55 41 5 42 67 1 68 -3 0 -13 -6 -23
-13z"/>
<path d="M4280 726 l0 -94 -43 -54 c-64 -77 -67 -87 -67 -192 0 -82 -2 -96
-16 -96 -15 0 -16 15 -11 148 4 81 9 159 13 175 5 21 3 27 -10 27 -14 0 -16
-21 -16 -177 l0 -176 -55 -58 -55 -58 0 -82 c0 -70 2 -80 13 -65 12 16 14 16
31 -3 11 -12 24 -21 29 -21 6 0 2 8 -7 19 -10 11 -19 41 -21 74 -5 64 9 87 55
87 15 0 38 9 51 19 23 18 24 23 21 157 l-3 139 56 69 55 69 0 93 c0 56 -4 94
-10 94 -6 0 -10 -38 -10 -94z"/>
<path d="M1616 797 c-22 -16 -24 -63 -5 -82 42 -40 99 -14 99 45 0 45 -54 66
-94 37z m64 -37 c0 -5 -2 -10 -4 -10 -3 0 -8 5 -11 10 -3 6 -1 10 4 10 6 0 11
-4 11 -10z m-40 -16 c0 -8 -5 -12 -10 -9 -6 4 -8 11 -5 16 9 14 15 11 15 -7z"/>
<path d="M0 753 c0 -6 7 -13 15 -17 8 -3 15 -14 15 -25 0 -14 -5 -19 -15 -15
-13 5 -15 -13 -15 -125 0 -107 3 -131 14 -131 34 0 46 29 46 116 0 49 -4 84
-10 84 -5 0 -10 20 -10 43 0 31 -6 49 -20 62 -11 10 -20 13 -20 8z"/>
<path d="M5070 741 c-5 -11 -10 -30 -10 -44 0 -13 -11 -34 -25 -47 -23 -21
-25 -31 -25 -102 0 -92 17 -118 75 -118 31 0 35 3 35 25 0 16 -6 25 -15 25
-25 0 -55 38 -55 70 0 23 8 35 35 52 29 20 35 29 35 61 0 33 -3 37 -26 37 -33
0 -29 29 6 47 24 12 24 13 3 13 -12 0 -27 -9 -33 -19z"/>
<path d="M1383 694 c-32 -31 -33 -35 -33 -109 l0 -76 80 -84 c43 -45 81 -80
84 -77 3 3 -28 40 -69 83 l-75 79 0 75 c0 67 3 79 25 100 21 22 33 25 102 26
87 1 81 6 -17 12 -62 4 -66 2 -97 -29z"/>
<path d="M3500 689 c0 -5 -4 -7 -10 -4 -5 3 -10 2 -10 -4 0 -6 95 -10 262 -11
174 0 266 -4 275 -12 16 -13 19 -383 3 -393 -6 -4 -33 -33 -60 -66 -35 -42
-50 -69 -50 -90 0 -16 5 -29 10 -29 6 0 8 10 4 24 -4 19 8 38 65 102 l71 79 0
192 c0 161 -3 194 -16 207 -13 14 -53 16 -280 16 -179 0 -264 -3 -264 -11z"/>
<path d="M3311 667 c-15 -19 10 -53 33 -44 23 9 21 57 -3 57 -10 0 -24 -6 -30
-13z"/>
<path d="M2935 589 c-25 -23 -45 -36 -45 -30 0 6 -5 11 -11 11 -6 0 -9 -6 -6
-14 3 -8 -18 -36 -49 -67 l-54 -53 0 -135 0 -135 60 -58 c33 -32 67 -69 75
-82 13 -19 25 -23 71 -25 l56 -2 -36 42 c-49 58 -38 61 14 5 30 -32 50 -46 69
-46 24 0 21 5 -39 60 -36 33 -82 76 -102 97 l-38 37 0 135 1 136 54 58 54 57
89 0 c117 0 152 7 152 31 0 18 -10 19 -135 19 l-135 0 -45 -41z m-64 -432 c17
-21 29 -41 26 -44 -3 -3 -26 12 -51 33 l-46 38 0 120 c0 100 3 123 18 139 16
18 17 14 20 -114 3 -133 3 -134 33 -172z m69 -137 c0 -5 -4 -10 -10 -10 -5 0
-10 5 -10 10 0 6 5 10 10 10 6 0 10 -4 10 -10z"/>
<path d="M3747 623 c-4 -3 -7 -15 -7 -26 0 -18 -6 -19 -60 -15 -33 2 -60 1
-60 -4 0 -4 24 -8 53 -8 28 0 68 -3 88 -6 39 -7 55 11 44 47 -6 19 -44 26 -58
12z"/>
<path d="M3276 605 c7 -17 48 -21 42 -3 -2 6 -14 13 -26 14 -15 3 -20 0 -16
-11z"/>
<path d="M5085 569 c-11 -16 4 -59 20 -59 10 0 15 11 15 35 0 35 -20 49 -35
24z"/>
<path d="M3576 544 c-8 -20 11 -44 34 -44 20 0 32 23 24 45 -8 20 -50 19 -58
-1z"/>
<path d="M3920 488 c0 -77 -9 -98 -43 -98 -10 0 -41 -25 -69 -55 l-50 -55
-123 0 c-72 0 -126 4 -130 10 -10 17 -37 11 -33 -7 5 -24 38 -31 166 -32 126
-1 125 -1 126 -75 1 -30 -3 -41 -14 -41 -8 0 -16 10 -18 21 -3 20 -11 22 -85
27 -96 7 -123 5 -139 -11 -9 -9 13 -12 95 -12 88 0 107 -3 107 -15 0 -9 -9
-15 -25 -15 -30 0 -46 -43 -23 -66 20 -21 77 -7 88 20 4 12 15 28 25 36 14 11
15 25 10 84 l-6 71 41 48 c30 34 49 47 68 47 44 1 63 38 60 117 -2 42 -8 68
-15 71 -10 3 -13 -16 -13 -70z"/>
<path d="M1522 516 c-27 -21 -38 -37 -32 -41 7 -4 26 7 44 24 18 17 36 31 42
31 5 0 36 -27 69 -60 l59 -59 -27 -22 c-40 -31 -57 -71 -57 -135 0 -54 2 -59
44 -100 41 -41 47 -44 99 -44 49 0 61 4 92 31 65 58 82 125 49 196 -27 55 -76
87 -140 88 -52 0 -56 2 -117 63 -34 34 -67 62 -72 62 -6 0 -29 -16 -53 -34z"/>
<path d="M4419 533 c-13 -16 -12 -17 4 -4 9 7 17 15 17 17 0 8 -8 3 -21 -13z"/>
<path d="M2527 534 c-13 -14 -7 -52 10 -58 25 -10 51 20 37 42 -12 19 -36 27
-47 16z"/>
<path d="M4303 484 l-53 -36 0 -99 c0 -59 4 -99 10 -99 6 0 10 -43 10 -110 0
-90 -3 -111 -16 -118 -13 -7 -14 -11 -4 -17 8 -5 18 -1 27 10 18 25 18 219 1
236 -9 8 -12 38 -10 98 l3 86 47 42 c57 52 53 53 -15 7z"/>
<path d="M1863 453 c-21 -8 -15 -43 6 -43 11 0 23 5 27 11 8 14 -17 38 -33 32z"/>
<path d="M2521 443 c7 -10 38 -44 67 -76 53 -57 54 -59 50 -108 -4 -42 -12
-57 -47 -93 -32 -32 -41 -49 -41 -76 0 -23 -8 -43 -27 -62 -19 -20 -22 -28
-12 -28 22 0 59 54 59 86 0 17 14 42 40 70 38 41 40 47 40 106 l0 63 -66 68
c-63 64 -91 86 -63 50z"/>
<path d="M1195 441 c-8 -15 3 -31 21 -31 9 0 14 7 12 17 -4 20 -24 28 -33 14z"/>
<path d="M1097 382 c-21 -23 -22 -66 -1 -86 36 -37 104 -7 104 46 0 51 -69 78
-103 40z"/>
<path d="M1936 372 c-8 -13 11 -35 23 -28 16 10 14 36 -3 36 -8 0 -17 -4 -20
-8z"/>
<path d="M3150 361 c0 -27 19 -36 37 -18 18 18 9 37 -18 37 -12 0 -19 -7 -19
-19z"/>
<path d="M1582 354 c4 -21 22 -23 26 -1 2 10 -3 17 -13 17 -10 0 -15 -6 -13
-16z"/>
<path d="M1534 329 c-9 -16 12 -33 31 -25 14 5 15 9 5 21 -15 18 -26 19 -36 4z"/>
<path d="M3302 333 c-21 -8 -44 -62 -36 -86 18 -62 78 -76 126 -30 34 33 36
72 5 101 -22 21 -64 28 -95 15z"/>
<path d="M4963 330 c-30 -12 -46 -45 -38 -80 5 -22 2 -30 -12 -34 -10 -3 -68
-53 -128 -110 -104 -100 -108 -105 -80 -105 25 -1 47 15 130 99 93 93 102 100
140 100 46 0 57 6 74 37 15 30 14 47 -6 71 -22 25 -51 33 -80 22z"/>
<path d="M1218 314 c-18 -18 -5 -44 47 -91 53 -48 71 -79 41 -67 -17 7 -30
-12 -15 -22 6 -3 21 3 32 15 l22 21 -57 53 c-33 30 -59 62 -60 75 -2 13 -6 20
-10 16z"/>
<path d="M1502 229 c-2 -96 -2 -97 31 -137 17 -23 38 -41 45 -41 21 -1 14 11
-28 46 l-39 34 -4 97 -3 97 -2 -96z"/>
<path d="M1945 310 c-4 -7 -3 -16 3 -22 14 -14 45 -2 40 15 -6 16 -34 21 -43
7z"/>
<path d="M2013 255 c0 -38 2 -53 4 -32 2 20 2 52 0 70 -2 17 -4 1 -4 -38z"/>
<path d="M777 282 c-18 -20 -23 -37 -8 -27 5 3 12 1 16 -5 9 -15 35 -12 35 3
0 7 -6 21 -13 31 -12 16 -14 16 -30 -2z"/>
<path d="M2140 296 c0 -2 8 -10 18 -17 15 -13 16 -12 3 4 -13 16 -21 21 -21
13z"/>
<path d="M3821 276 c-23 -27 -9 -51 29 -51 32 0 35 2 35 30 0 25 -4 31 -26 33
-14 2 -31 -4 -38 -12z"/>
<path d="M1540 260 c0 -16 5 -21 23 -18 12 2 22 10 22 18 0 8 -10 16 -22 18
-18 3 -23 -2 -23 -18z"/>
<path d="M391 210 c-36 -39 -59 -56 -70 -53 -13 5 -14 3 -3 -8 13 -14 17 -41
5 -37 -5 2 -9 -1 -11 -7 -9 -25 18 -12 36 17 12 18 43 55 71 82 28 27 48 53
45 58 -9 14 -18 8 -73 -52z"/>
<path d="M1953 254 c-7 -18 17 -38 31 -24 11 11 1 40 -14 40 -6 0 -13 -7 -17
-16z"/>
<path d="M2215 231 c22 -23 49 -47 60 -53 11 -6 18 -9 15 -6 -3 2 -30 26 -60
53 -54 49 -54 49 -15 6z"/>
<path d="M2065 250 c-4 -6 -4 -22 -1 -36 5 -20 12 -25 34 -22 23 2 27 8 27 33
0 25 -4 31 -27 33 -14 2 -29 -2 -33 -8z"/>
<path d="M161 240 c1 -16 76 -86 84 -78 3 2 -16 24 -40 48 -25 24 -45 38 -44
30z"/>
<path d="M3403 202 c-43 -40 -52 -53 -51 -80 1 -25 -8 -42 -37 -72 -21 -22
-35 -43 -31 -47 4 -4 25 13 47 37 40 44 40 44 20 9 -23 -40 -25 -49 -12 -49 5
0 14 14 22 31 7 17 46 65 86 105 l74 74 99 0 c55 0 102 4 105 10 4 6 -34 10
-107 10 l-113 0 -65 -64 c-54 -54 -66 -62 -74 -48 -7 12 1 25 36 56 24 23 50
49 57 59 24 32 -4 17 -56 -31z"/>
<path d="M130 210 c0 -15 53 -59 63 -53 4 2 -6 18 -22 34 -31 31 -41 35 -41
19z"/>
<path d="M770 196 c0 -8 5 -18 10 -21 6 -3 10 1 10 9 0 8 -4 18 -10 21 -5 3
-10 -1 -10 -9z"/>
<path d="M3055 180 c-3 -5 23 -37 59 -71 41 -38 66 -69 66 -82 0 -16 3 -18 12
-9 16 16 3 40 -60 106 -61 64 -69 70 -77 56z"/>
<path d="M1544 145 c-9 -23 10 -40 25 -22 9 11 8 17 -4 27 -12 10 -16 9 -21
-5z"/>
<path d="M1933 134 c-3 -8 2 -23 11 -32 15 -15 17 -15 33 0 13 14 14 20 3 32
-16 20 -39 20 -47 0z"/>
<path d="M4463 133 c-4 -10 1 -22 15 -33 l20 -17 -26 -29 c-15 -16 -7 -10 17
12 38 37 42 44 32 63 -14 25 -49 28 -58 4z"/>
<path d="M3502 93 c3 -43 16 -49 84 -38 42 6 44 8 44 41 l0 34 -66 0 -65 0 3
-37z"/>
<path d="M2217 102 c-20 -22 -24 -102 -4 -102 6 1 21 15 32 33 16 25 28 33 58
35 33 3 43 -2 72 -32 19 -20 38 -36 44 -36 16 0 13 36 -4 50 -17 14 -20 30 -5
30 5 0 19 -18 30 -40 11 -22 25 -40 30 -40 16 0 -27 76 -56 99 -37 29 -172 31
-197 3z"/>
<path d="M3447 103 c-11 -10 -8 -41 4 -49 6 -3 18 1 27 9 13 13 13 19 2 31
-14 17 -23 20 -33 9z"/>
<path d="M4100 91 c-5 -11 -10 -25 -10 -31 0 -15 46 -60 61 -60 7 0 0 11 -15
25 -30 28 -33 40 -10 49 23 9 24 8 34 -20 12 -30 43 -30 48 0 9 44 -86 76
-108 37z"/>
<path d="M3766 75 c-15 -14 -26 -35 -26 -50 l0 -25 100 0 c95 0 100 1 100 21
0 11 -13 34 -29 50 -39 39 -105 41 -145 4z"/>
<path d="M4363 40 c0 -25 2 -35 4 -22 2 12 2 32 0 45 -2 12 -4 2 -4 -23z"/>
<path d="M4857 40 l-42 -39 28 -1 c16 0 40 9 54 20 27 21 43 19 43 -6 0 -8 9
-14 20 -14 26 0 27 40 2 63 -29 27 -60 20 -105 -23z"/>
<path d="M393 35 c0 -22 2 -30 4 -17 2 12 2 30 0 40 -3 9 -5 -1 -4 -23z"/>
<path d="M1700 38 l-35 -33 164 -3 c90 -1 167 0 170 4 14 14 -34 34 -64 27
-49 -12 -96 -6 -119 16 -33 31 -75 27 -116 -11z"/>
<path d="M2010 30 c0 -25 4 -30 25 -30 29 0 29 0 13 35 -16 35 -38 32 -38 -5z"/>
<path d="M2682 30 c-13 -16 -19 -30 -14 -30 10 0 52 43 52 53 0 16 -18 5 -38
-23z"/>
<path d="M692 38 c-7 -7 -12 -16 -12 -22 0 -6 5 -5 12 2 9 9 16 8 30 -5 27
-24 32 -10 5 15 -18 17 -26 19 -35 10z"/>
<path d="M2717 15 c-5 -11 0 -15 19 -15 16 0 24 5 22 13 -7 18 -35 20 -41 2z"/>
</g>
</svg>