<svg width="157" height="26" viewBox="0 0 157 26" fill="none" xmlns="http://www.w3.org/2000/svg">
  <g clip-path="url(#clip0)">
    <path d="M142.433 14.3477H152.245C151.687 12.0061 149.623 10.3877 147.45 10.3877C145.108 10.3877 143.046 12.0061 142.433 14.3477ZM142.097 17.414C142.319 20.4243 144.773 22.8218 147.952 22.8218C150.626 22.8218 152.076 21.5388 153.137 20.3684L155.479 22.6548C154.141 24.3821 151.574 26.0005 147.896 26.0005C142.655 26.0005 138.585 22.0405 138.585 16.6327C138.585 11.2249 142.264 7.21121 147.338 7.21121C152.356 7.21121 156.036 11.2801 156.036 16.6327C156.036 16.8012 156.036 17.0233 155.981 17.414H142.097ZM131.671 -0.00640488H135.35V25.6651H131.671V-0.00640488ZM123.253 7.60167H126.933V25.6651H123.253V7.60167ZM125.092 -0.00640488C126.429 -0.00640488 127.49 1.10956 127.49 2.44625C127.49 3.78515 126.429 4.78846 125.092 4.78846C123.698 4.78846 122.695 3.78515 122.695 2.44625C122.695 1.10956 123.698 -0.00640488 125.092 -0.00640488ZM92.3646 7.60167V9.3291C93.0877 8.54928 95.2079 7.21121 97.6613 7.21121C100.281 7.21121 102.512 8.43675 104.017 10.2214C105.69 8.54928 107.642 7.21121 110.875 7.21121C113.44 7.21121 115.781 8.38086 117.287 10.2766C118.402 11.6155 118.959 13.4002 118.959 16.4105V25.6651H115.334V15.8529C115.334 14.013 114.945 13.0096 114.275 12.2283C113.44 11.2801 112.213 10.6673 110.875 10.6673C108.31 10.6673 106.581 12.0061 105.411 13.2318C105.578 14.1241 105.69 15.1827 105.69 16.4105V25.6651H102.066V15.8529C102.066 14.013 101.675 13.0096 101.061 12.2283C100.225 11.2801 98.9435 10.6673 97.5501 10.6673C95.3189 10.6673 93.5343 12.0061 92.4756 13.2318V25.6651H88.8518V7.60167H92.3646ZM73.3529 20.8701C75.0244 22.1531 76.8642 22.8218 78.7048 22.8218C80.2659 22.8218 81.8262 21.9846 81.8262 20.5906C81.8262 18.5285 78.816 18.4174 76.1963 17.5251C74.0209 16.8012 72.0699 15.4071 72.0699 12.8412C72.0699 8.99367 75.5261 7.21121 78.7048 7.21121C81.3804 7.21121 83.2762 8.04757 84.7255 9.21802L82.8297 11.8377C81.7152 11.0027 80.4321 10.3877 78.9822 10.3877C77.1996 10.3877 75.6945 11.2801 75.6945 12.6741C75.6945 13.9019 77.0864 14.3477 78.927 14.7943C81.771 15.5182 85.5068 16.8012 85.5068 20.4795C85.5068 23.9363 82.2729 26.0005 78.76 26.0005C75.8615 26.0005 73.464 25.1634 71.4571 23.5471L73.3529 20.8701ZM68.9486 25.6651C68.2784 25.8873 67.1631 26.0005 66.1046 26.0005C63.8739 26.0005 62.2018 25.2193 61.0299 23.9363C59.9714 22.7107 59.5807 21.0944 59.5807 19.1427V10.8894H54.9534V7.60167H59.5807V2.86185H63.2053V7.60167H68.9486V10.8894H63.2053V19.3098C63.2053 20.2573 63.3163 21.0944 63.7629 21.5962C64.2646 22.209 65.2681 22.5996 66.2156 22.5996C66.7725 22.5996 67.7207 22.4864 68.2226 22.3201L68.9486 25.6651ZM41.5725 20.8701C43.3006 22.1531 45.1406 22.8218 46.9244 22.8218C48.4848 22.8218 50.1033 21.9846 50.1033 20.5906C50.1033 18.5285 47.0921 18.4174 44.4158 17.5251C42.2413 16.8012 40.2903 15.4071 40.2903 12.8412C40.2903 8.99367 43.7464 7.21121 46.9796 7.21121C49.6007 7.21121 51.5532 8.04757 52.9451 9.21802L51.0514 11.8377C49.9349 11.0027 48.6525 10.3877 47.2033 10.3877C45.4193 10.3877 43.9141 11.2801 43.9141 12.6741C43.9141 13.9019 45.364 14.3477 47.1473 14.7943C49.9906 15.5182 53.7264 16.8012 53.7264 20.4795C53.7264 23.9363 50.5475 26.0005 46.9796 26.0005C44.1363 26.0005 41.7954 25.1634 39.6767 23.5471L41.5725 20.8701ZM24.2875 14.3477H34.1013C33.5437 12.0061 31.4807 10.3877 29.3615 10.3877C27.0206 10.3877 24.9018 12.0061 24.2875 14.3477ZM23.9536 17.414C24.1772 20.4243 26.6299 22.8218 29.8079 22.8218C32.4835 22.8218 33.9336 21.5388 34.9936 20.3684L37.3345 22.6548C35.9971 24.3821 33.4317 26.0005 29.7519 26.0005C24.5112 26.0005 20.4407 22.0405 20.4407 16.6327C20.4407 11.2249 24.1213 7.21121 29.2503 7.21121C34.269 7.21121 37.8928 11.2801 37.8928 16.6327C37.8928 16.8012 37.8928 17.0233 37.8362 17.414H23.9536ZM3.80877 19.9778C5.03512 21.6514 6.87573 22.5996 8.71488 22.5996C12.2276 22.5996 14.7362 19.8667 14.7362 16.6327C14.7362 13.4554 12.3954 10.6673 8.93778 10.6673C6.76391 10.6673 4.92402 11.7818 3.80877 13.2318V19.9778ZM3.56795 25.6651H0V-0.00640488H3.67976V9.16211C5.29673 7.82394 7.24842 7.21121 9.1994 7.21121C10.8723 7.21121 12.3774 7.65693 13.6038 8.38086C16.336 9.99926 18.2318 13.0096 18.2318 16.6327C18.2318 20.2573 16.336 23.2124 13.6597 24.8287C12.3774 25.554 10.7046 26.0005 9.08758 26.0005C6.96962 26.0005 5.01721 25.2745 3.56795 23.9937V25.6651Z" fill="#231F20"/>
  </g>
  <defs>
    <clipPath id="clip0">
      <rect width="156.037" height="26" fill="white"/>
    </clipPath>
  </defs>
</svg>
