<svg width="153" height="21" viewBox="0 0 153 21" fill="none" xmlns="http://www.w3.org/2000/svg">
<path d="M85.7796 10.4824L81.385 15.0939L75.7734 9.15215L73.4916 6.75772C72.9507 6.20789 72.6465 5.46296 72.6465 4.68255C72.6465 3.08627 73.8803 1.77377 75.4016 1.77377C76.8213 1.77377 78.0214 2.90891 78.1566 4.39877H79.7793C79.6271 1.86245 77.5651 -0.0708228 75.148 0.0888055C72.8324 0.230697 71.0407 2.23492 71.0407 4.66482C71.0407 5.92411 71.5309 7.11245 72.3929 7.98154L72.5789 8.17664L72.9338 8.54911L72.6296 8.72647C70.6013 9.84387 69.3167 12.0432 69.2998 14.4554C69.2998 18.0027 72.0549 20.8937 75.4354 20.8937C77.1256 20.8937 78.7482 20.1665 79.8976 18.8717L80.0835 18.6589L81.3005 17.3819L84.1232 20.3439L85.2556 19.1555L82.4329 16.1935L86.8275 11.582L85.7796 10.4824ZM80.0666 16.4773L78.8327 17.7721C77.6496 18.8363 76.534 19.3506 75.4016 19.3506C72.8324 19.3506 70.7365 17.169 70.7365 14.4731C70.7365 12.3802 72.0042 10.5179 73.8972 9.84387L74.0494 9.79066L80.2187 16.2999L80.0666 16.4773Z" fill="#0D0D0D"/>
<path d="M12.4739 9.45323H1.60572V0.33667H0V20.6272H1.60572V10.9963H12.4739V20.6272H14.0627V0.33667H12.4739V9.45323Z" fill="#0D0D0D"/>
<path d="M26.3676 0.33667L18.6602 20.645H20.3842L22.5815 14.7742H31.8778L34.0751 20.645H35.7991L28.0748 0.33667H26.3676ZM23.1731 13.2134L27.2127 2.34089L31.2524 13.2134H23.1731Z" fill="#0D0D0D"/>
<path d="M42.3403 0.33667H40.7515V20.645H42.3403V0.33667Z" fill="#0D0D0D"/>
<path d="M60.4595 6.11877C60.4595 2.60694 57.9918 0.33667 54.155 0.33667H49.4392V20.645H51.028V11.9009H53.7493L59.0904 20.6095L59.1074 20.645H61.0342L55.541 11.7944C56.3861 11.6703 60.4595 10.8012 60.4595 6.11877ZM51.028 10.2868V1.95069H54.2395C57.0622 1.95069 58.82 3.54698 58.82 6.11877C58.82 8.69056 57.0622 10.2868 54.2395 10.2868H51.028Z" fill="#0D0D0D"/>
<path d="M101.025 9.82601C98.1013 8.47804 96.1744 7.41385 96.1744 5.07264C96.1744 3.05068 97.7632 1.63176 100.028 1.63176C102.665 1.63176 104.017 3.90203 104.034 3.91976L104.085 4.00845L105.319 3.0152L105.285 2.94426C105.268 2.90878 103.442 0 100.011 0C96.4787 0 94.5856 2.625 94.5856 5.09037C94.5856 8.24747 97.0872 9.82601 99.7915 11.0676C101.887 12.0431 104.068 13.0363 104.068 15.5372C104.068 17.7897 102.327 19.3505 99.8591 19.3505C96.5632 19.3505 95.2955 15.9983 95.2786 15.9628L95.2448 15.8564L93.8081 16.761L93.8419 16.8319C93.8588 16.8674 95.6336 21 99.8591 21C103.223 21 105.674 18.6943 105.674 15.5372C105.64 12.9831 104.304 11.3336 101.025 9.82601Z" fill="#0D0D0D"/>
<path d="M123.573 0.33667H121.477L113.077 9.8789V0.33667H111.471V20.6272H113.077V10.8899L122.66 20.6272H124.942L114.801 10.2691L123.573 0.33667Z" fill="#0D0D0D"/>
<path d="M131.095 0.33667H129.506V20.645H131.095V0.33667Z" fill="#0D0D0D"/>
<path d="M151.394 0.33667V17.683L139.766 0.372143L139.749 0.33667H138.194V20.6272H139.782V3.22772L151.411 20.5917L151.445 20.6272H153V0.33667H151.394Z" fill="#0D0D0D"/>
</svg>
