<svg xmlns="http://www.w3.org/2000/svg" version="1.0" preserveAspectRatio="xMidYMid meet" viewBox="114.28 1298.94 1125.7 85.87">  <g transform="translate(0, 2048) scale(0.0675, -0.0675)" fill="#000000" stroke="none">    <path d="M11257 11090 c-84 -21 -162 -83 -201 -158 -29 -55 -33 -148 -28 -627     l4 -480 104 3 104 3 0 485 c0 501 2 529 41 560 39 32 59 27 107 -23 46 -47     202 -238 372 -453 101 -128 258 -322 353 -437 86 -103 139 -133 239 -133 124     0 235 65 278 163 35 78 40 162 40 635 l0 462 -110 0 -110 0 0 -467 c0 -289 -4     -482 -10 -505 -11 -38 -60 -88 -87 -88 -29 0 -112 100 -509 616 -227 294 -309     385 -379 421 -55 29 -145 38 -208 23z"></path>    <path d="M1958 11071 c-122 -39 -201 -108 -238 -209 -86 -228 41 -454 276     -492 33 -6 250 -10 482 -10 462 0 467 -1 512 -58 77 -97 20 -233 -109 -261     -35 -7 -238 -11 -606 -11 l-554 0 -3 -100 -3 -100 585 0 c625 0 645 1 741 51     63 32 126 95 156 158 25 51 28 66 28 166 0 94 -3 117 -23 160 -38 82 -122 156     -214 187 -22 8 -196 13 -508 17 l-475 6 -38 23 c-93 59 -90 185 6 256 28 21     37 21 628 24 l599 2 0 105 0 105 -592 -1 c-545 0 -598 -2 -650 -18z"></path>    <path d="M4252 11068 c-66 -32 -80 -51 -432 -608 -68 -107 -186 -291 -262     -408 -76 -118 -138 -216 -138 -218 0 -2 57 -4 128 -4 l127 1 100 155 c94 146     146 214 129 171 -6 -16 25 -17 450 -17 429 0 455 1 449 18 -16 44 44 -31 140     -175 l102 -153 128 0 129 0 -19 29 c-26 40 -418 636 -608 924 -188 284 -212     307 -319 307 -42 0 -74 -7 -104 -22z m196 -330 c138 -208 252 -386 252 -395 0     -4 -155 -7 -345 -5 -190 1 -345 5 -345 9 0 19 329 523 341 523 5 0 48 -60 97     -132z"></path>    <path d="M5515 10633 c7 -490 10 -522 60 -609 36 -61 126 -139 193 -166 57     -23 58 -23 612 -26 l555 -3 0 101 0 100 -505 0 c-278 0 -522 4 -543 9 -58 14     -105 51 -132 105 l-25 50 0 448 0 448 -110 0 -111 0 6 -457z"></path>    <path d="M7450 11074 c-114 -31 -204 -106 -252 -210 -23 -48 -23 -56 -22 -394     0 -333 1 -347 22 -401 41 -103 139 -190 251 -223 47 -14 134 -16 630 -16 l576     0 2 99 2 100 -562 3 c-515 3 -565 4 -602 21 -55 25 -82 52 -101 104 -19 48     -16 153 6 192 l12 23 549 -4 549 -3 0 103 0 102 -545 0 -544 0 -21 22 c-16 17     -20 35 -20 88 0 92 28 146 94 179 l49 25 553 0 554 0 0 103 0 103 -562 -1     c-463 0 -573 -3 -618 -15z"></path>    <path d="M9173 11075 c-151 -41 -238 -135 -265 -285 -25 -146 39 -297 157     -370 81 -49 101 -51 580 -54 401 -3 455 -5 493 -21 50 -20 78 -53 92 -106 20     -75 -15 -140 -100 -185 -33 -18 -72 -19 -627 -22 l-593 -3 0 -100 0 -100 618     3 c611 3 618 4 677 26 176 66 266 224 235 416 -24 152 -111 245 -260 280 -53     13 -144 16 -490 16 -261 0 -439 4 -462 10 -81 23 -126 92 -113 171 9 52 56     106 103 118 21 6 290 11 614 13 l578 3 0 103 0 102 -592 -1 c-478 0 -603 -3     -645 -14z"></path>    <path d="M13287 11079 c-118 -28 -219 -109 -269 -216 -41 -86 -50 -221 -24     -346 16 -75 16 -87 2 -142 -19 -69 -20 -124 -6 -215 22 -133 98 -236 218 -293     l67 -32 598 -3 597 -3 0 100 0 100 -557 3 -558 3 -48 24 c-28 13 -57 37 -68     55 -40 65 -48 206 -14 240 11 11 119 12 564 8 l551 -5 0 107 0 106 -550 0     -549 0 -21 23 c-19 19 -21 32 -18 98 3 65 7 81 31 112 57 75 26 72 660 75     l567 3 0 104 0 105 -567 -1 c-313 -1 -585 -5 -606 -10z"></path>    <path d="M14740 11037 c69 -65 291 -262 477 -425 150 -131 172 -162 132 -189     -64 -45 -534 -468 -618 -557 l-35 -36 65 -1 c35 -1 103 -2 151 -3 l88 -1 254     225 c179 158 261 237 275 266 29 56 30 219 1 282 -22 49 -8 35 -297 293 l-222     199 -163 0 -163 -1 55 -52z"></path>    <path d="M16098 10924 c-359 -326 -353 -317 -346 -487 3 -90 7 -109 27 -138     14 -19 133 -132 265 -251 l241 -217 155 0 155 0 -101 97 c-55 53 -207 193     -336 311 -137 124 -234 219 -231 227 2 7 133 129 289 271 157 142 308 279 337     305 l52 48 -162 0 -161 0 -184 -166z"></path>    <path d="M16780 10985 l0 -106 345 7 345 7 0 -531 0 -532 110 0 111 0 -7 530     -7 531 346 -3 347 -3 0 103 0 102 -795 0 -795 0 0 -105z"></path>  </g></svg>